<svg width="1265" height="585" viewBox="0 0 1265 585" fill="none" xmlns="http://www.w3.org/2000/svg">
<rect width="1265" height="585" fill="url(#paint0_linear_93_87)"/>
<path d="M290.44 21.3636H292.122L296.077 31.0227H296.213L300.168 21.3636H301.849V33H300.531V24.1591H300.418L296.781 33H295.509L291.872 24.1591H291.759V33H290.44V21.3636ZM307.061 33.2045C306.508 33.2045 306.006 33.1004 305.555 32.892C305.105 32.6799 304.747 32.375 304.482 31.9773C304.216 31.5758 304.084 31.0909 304.084 30.5227C304.084 30.0227 304.182 29.6174 304.379 29.3068C304.576 28.9924 304.839 28.7462 305.169 28.5682C305.499 28.3902 305.862 28.2576 306.26 28.1705C306.661 28.0795 307.065 28.0076 307.47 27.9545C308 27.8864 308.43 27.8352 308.76 27.8011C309.093 27.7633 309.336 27.7008 309.487 27.6136C309.643 27.5265 309.72 27.375 309.72 27.1591V27.1136C309.72 26.553 309.567 26.1174 309.26 25.8068C308.957 25.4962 308.497 25.3409 307.879 25.3409C307.239 25.3409 306.737 25.4811 306.374 25.7614C306.01 26.0417 305.754 26.3409 305.607 26.6591L304.334 26.2045C304.561 25.6742 304.864 25.2614 305.243 24.9659C305.625 24.6667 306.042 24.4583 306.493 24.3409C306.947 24.2197 307.394 24.1591 307.834 24.1591C308.114 24.1591 308.436 24.1932 308.8 24.2614C309.167 24.3258 309.521 24.4602 309.862 24.6648C310.207 24.8693 310.493 25.178 310.72 25.5909C310.947 26.0038 311.061 26.5568 311.061 27.25V33H309.72V31.8182H309.652C309.561 32.0076 309.41 32.2102 309.197 32.4261C308.985 32.642 308.703 32.8258 308.351 32.9773C307.999 33.1288 307.569 33.2045 307.061 33.2045ZM307.266 32C307.796 32 308.243 31.8958 308.607 31.6875C308.974 31.4792 309.25 31.2102 309.436 30.8807C309.625 30.5511 309.72 30.2045 309.72 29.8409V28.6136C309.663 28.6818 309.538 28.7443 309.345 28.8011C309.156 28.8542 308.936 28.9015 308.686 28.9432C308.44 28.9811 308.199 29.0152 307.964 29.0455C307.733 29.072 307.546 29.0947 307.402 29.1136C307.054 29.1591 306.728 29.233 306.425 29.3352C306.125 29.4337 305.883 29.5833 305.697 29.7841C305.516 29.9811 305.425 30.25 305.425 30.5909C305.425 31.0568 305.597 31.4091 305.942 31.6477C306.29 31.8826 306.732 32 307.266 32ZM314.849 27.75V33H313.509V24.2727H314.804V25.6364H314.918C315.122 25.1932 315.433 24.8371 315.849 24.5682C316.266 24.2955 316.804 24.1591 317.463 24.1591C318.054 24.1591 318.571 24.2803 319.014 24.5227C319.457 24.7614 319.802 25.125 320.048 25.6136C320.295 26.0985 320.418 26.7121 320.418 27.4545V33H319.077V27.5455C319.077 26.8598 318.899 26.3258 318.543 25.9432C318.187 25.5568 317.698 25.3636 317.077 25.3636C316.649 25.3636 316.266 25.4564 315.929 25.642C315.596 25.8277 315.332 26.0985 315.139 26.4545C314.946 26.8106 314.849 27.2424 314.849 27.75ZM325.436 33.2045C324.883 33.2045 324.381 33.1004 323.93 32.892C323.48 32.6799 323.122 32.375 322.857 31.9773C322.591 31.5758 322.459 31.0909 322.459 30.5227C322.459 30.0227 322.557 29.6174 322.754 29.3068C322.951 28.9924 323.214 28.7462 323.544 28.5682C323.874 28.3902 324.237 28.2576 324.635 28.1705C325.036 28.0795 325.44 28.0076 325.845 27.9545C326.375 27.8864 326.805 27.8352 327.135 27.8011C327.468 27.7633 327.711 27.7008 327.862 27.6136C328.018 27.5265 328.095 27.375 328.095 27.1591V27.1136C328.095 26.553 327.942 26.1174 327.635 25.8068C327.332 25.4962 326.872 25.3409 326.254 25.3409C325.614 25.3409 325.112 25.4811 324.749 25.7614C324.385 26.0417 324.129 26.3409 323.982 26.6591L322.709 26.2045C322.936 25.6742 323.239 25.2614 323.618 24.9659C324 24.6667 324.417 24.4583 324.868 24.3409C325.322 24.2197 325.769 24.1591 326.209 24.1591C326.489 24.1591 326.811 24.1932 327.175 24.2614C327.542 24.3258 327.896 24.4602 328.237 24.6648C328.582 24.8693 328.868 25.178 329.095 25.5909C329.322 26.0038 329.436 26.5568 329.436 27.25V33H328.095V31.8182H328.027C327.936 32.0076 327.785 32.2102 327.572 32.4261C327.36 32.642 327.078 32.8258 326.726 32.9773C326.374 33.1288 325.944 33.2045 325.436 33.2045ZM325.641 32C326.171 32 326.618 31.8958 326.982 31.6875C327.349 31.4792 327.625 31.2102 327.811 30.8807C328 30.5511 328.095 30.2045 328.095 29.8409V28.6136C328.038 28.6818 327.913 28.7443 327.72 28.8011C327.531 28.8542 327.311 28.9015 327.061 28.9432C326.815 28.9811 326.574 29.0152 326.339 29.0455C326.108 29.072 325.921 29.0947 325.777 29.1136C325.429 29.1591 325.103 29.233 324.8 29.3352C324.5 29.4337 324.258 29.5833 324.072 29.7841C323.891 29.9811 323.8 30.25 323.8 30.5909C323.8 31.0568 323.972 31.4091 324.317 31.6477C324.665 31.8826 325.107 32 325.641 32ZM333.224 21.3636V33H331.884V21.3636H333.224ZM335.68 33V24.2727H337.021V33H335.68ZM336.362 22.8182C336.101 22.8182 335.875 22.7292 335.686 22.5511C335.5 22.3731 335.408 22.1591 335.408 21.9091C335.408 21.6591 335.5 21.4451 335.686 21.267C335.875 21.089 336.101 21 336.362 21C336.624 21 336.847 21.089 337.033 21.267C337.222 21.4451 337.317 21.6591 337.317 21.9091C337.317 22.1591 337.222 22.3731 337.033 22.5511C336.847 22.7292 336.624 22.8182 336.362 22.8182ZM344.159 33V21.3636H351.182V22.6136H345.568V26.5455H350.818V27.7955H345.568V31.75H351.273V33H344.159ZM354.54 24.2727L356.631 27.8409L358.722 24.2727H360.267L357.449 28.6364L360.267 33H358.722L356.631 29.6136L354.54 33H352.994L355.767 28.6364L352.994 24.2727H354.54ZM362.18 36.2727V24.2727H363.476V25.6591H363.635C363.733 25.5076 363.87 25.3144 364.044 25.0795C364.222 24.8409 364.476 24.6288 364.805 24.4432C365.139 24.2538 365.589 24.1591 366.158 24.1591C366.893 24.1591 367.54 24.3428 368.101 24.7102C368.661 25.0777 369.099 25.5985 369.413 26.2727C369.728 26.947 369.885 27.7424 369.885 28.6591C369.885 29.5833 369.728 30.3845 369.413 31.0625C369.099 31.7367 368.663 32.2595 368.107 32.6307C367.55 32.9981 366.908 33.1818 366.18 33.1818C365.62 33.1818 365.171 33.089 364.834 32.9034C364.497 32.714 364.237 32.5 364.055 32.2614C363.874 32.0189 363.733 31.8182 363.635 31.6591H363.521V36.2727H362.18ZM363.499 28.6364C363.499 29.2955 363.595 29.8769 363.788 30.3807C363.982 30.8807 364.264 31.2727 364.635 31.5568C365.006 31.8371 365.461 31.9773 365.999 31.9773C366.559 31.9773 367.027 31.8295 367.402 31.5341C367.781 31.2348 368.065 30.8333 368.254 30.3295C368.447 29.822 368.544 29.2576 368.544 28.6364C368.544 28.0227 368.449 27.4697 368.26 26.9773C368.074 26.4811 367.792 26.089 367.413 25.8011C367.038 25.5095 366.567 25.3636 365.999 25.3636C365.453 25.3636 364.995 25.5019 364.624 25.7784C364.252 26.0511 363.972 26.4337 363.783 26.9261C363.593 27.4148 363.499 27.9848 363.499 28.6364ZM374.499 33.2045C373.946 33.2045 373.444 33.1004 372.993 32.892C372.542 32.6799 372.184 32.375 371.919 31.9773C371.654 31.5758 371.521 31.0909 371.521 30.5227C371.521 30.0227 371.62 29.6174 371.817 29.3068C372.014 28.9924 372.277 28.7462 372.607 28.5682C372.936 28.3902 373.3 28.2576 373.697 28.1705C374.099 28.0795 374.502 28.0076 374.908 27.9545C375.438 27.8864 375.868 27.8352 376.197 27.8011C376.531 27.7633 376.773 27.7008 376.925 27.6136C377.08 27.5265 377.158 27.375 377.158 27.1591V27.1136C377.158 26.553 377.004 26.1174 376.697 25.8068C376.394 25.4962 375.934 25.3409 375.317 25.3409C374.677 25.3409 374.175 25.4811 373.811 25.7614C373.447 26.0417 373.192 26.3409 373.044 26.6591L371.771 26.2045C371.999 25.6742 372.302 25.2614 372.68 24.9659C373.063 24.6667 373.48 24.4583 373.93 24.3409C374.385 24.2197 374.832 24.1591 375.271 24.1591C375.552 24.1591 375.874 24.1932 376.237 24.2614C376.605 24.3258 376.959 24.4602 377.3 24.6648C377.644 24.8693 377.93 25.178 378.158 25.5909C378.385 26.0038 378.499 26.5568 378.499 27.25V33H377.158V31.8182H377.089C376.999 32.0076 376.847 32.2102 376.635 32.4261C376.423 32.642 376.141 32.8258 375.788 32.9773C375.436 33.1288 375.006 33.2045 374.499 33.2045ZM374.703 32C375.233 32 375.68 31.8958 376.044 31.6875C376.411 31.4792 376.688 31.2102 376.874 30.8807C377.063 30.5511 377.158 30.2045 377.158 29.8409V28.6136C377.101 28.6818 376.976 28.7443 376.783 28.8011C376.593 28.8542 376.374 28.9015 376.124 28.9432C375.877 28.9811 375.637 29.0152 375.402 29.0455C375.171 29.072 374.983 29.0947 374.839 29.1136C374.491 29.1591 374.165 29.233 373.862 29.3352C373.563 29.4337 373.321 29.5833 373.135 29.7841C372.953 29.9811 372.862 30.25 372.862 30.5909C372.862 31.0568 373.035 31.4091 373.379 31.6477C373.728 31.8826 374.169 32 374.703 32ZM384.241 33.1818C383.514 33.1818 382.872 32.9981 382.315 32.6307C381.759 32.2595 381.323 31.7367 381.009 31.0625C380.694 30.3845 380.537 29.5833 380.537 28.6591C380.537 27.7424 380.694 26.947 381.009 26.2727C381.323 25.5985 381.76 25.0777 382.321 24.7102C382.882 24.3428 383.529 24.1591 384.264 24.1591C384.832 24.1591 385.281 24.2538 385.611 24.4432C385.944 24.6288 386.198 24.8409 386.372 25.0795C386.55 25.3144 386.688 25.5076 386.787 25.6591H386.901V21.3636H388.241V33H386.946V31.6591H386.787C386.688 31.8182 386.548 32.0189 386.366 32.2614C386.185 32.5 385.925 32.714 385.588 32.9034C385.251 33.089 384.802 33.1818 384.241 33.1818ZM384.423 31.9773C384.961 31.9773 385.416 31.8371 385.787 31.5568C386.158 31.2727 386.44 30.8807 386.634 30.3807C386.827 29.8769 386.923 29.2955 386.923 28.6364C386.923 27.9848 386.829 27.4148 386.639 26.9261C386.45 26.4337 386.17 26.0511 385.798 25.7784C385.427 25.5019 384.969 25.3636 384.423 25.3636C383.855 25.3636 383.382 25.5095 383.003 25.8011C382.628 26.089 382.346 26.4811 382.156 26.9773C381.971 27.4697 381.878 28.0227 381.878 28.6364C381.878 29.2576 381.973 29.822 382.162 30.3295C382.355 30.8333 382.639 31.2348 383.014 31.5341C383.393 31.8295 383.863 31.9773 384.423 31.9773ZM394.543 33.1818C393.702 33.1818 392.976 32.9962 392.366 32.625C391.76 32.25 391.293 31.7273 390.963 31.0568C390.637 30.3826 390.474 29.5985 390.474 28.7045C390.474 27.8106 390.637 27.0227 390.963 26.3409C391.293 25.6553 391.751 25.1212 392.338 24.7386C392.929 24.3523 393.618 24.1591 394.406 24.1591C394.861 24.1591 395.31 24.2348 395.753 24.3864C396.196 24.5379 396.599 24.7841 396.963 25.125C397.327 25.4621 397.616 25.9091 397.832 26.4659C398.048 27.0227 398.156 27.7083 398.156 28.5227V29.0909H391.429V27.9318H396.793C396.793 27.4394 396.694 27 396.497 26.6136C396.304 26.2273 396.027 25.9223 395.668 25.6989C395.312 25.4754 394.891 25.3636 394.406 25.3636C393.872 25.3636 393.41 25.4962 393.02 25.7614C392.634 26.0227 392.336 26.3636 392.128 26.7841C391.92 27.2045 391.815 27.6553 391.815 28.1364V28.9091C391.815 29.5682 391.929 30.1269 392.156 30.5852C392.387 31.0398 392.707 31.3864 393.116 31.625C393.526 31.8598 394.001 31.9773 394.543 31.9773C394.895 31.9773 395.213 31.928 395.497 31.8295C395.785 31.7273 396.033 31.5758 396.241 31.375C396.45 31.1705 396.611 30.9167 396.724 30.6136L398.02 30.9773C397.884 31.4167 397.654 31.803 397.332 32.1364C397.01 32.4659 396.613 32.7235 396.139 32.9091C395.666 33.0909 395.134 33.1818 394.543 33.1818Z" fill="white"/>
<defs>
<linearGradient id="paint0_linear_93_87" x1="632.5" y1="-3.44455e-05" x2="1701.5" y2="903.5" gradientUnits="userSpaceOnUse">
<stop stop-color="#F8F9FA"/>
<stop offset="1" stop-color="#00BFA6" stop-opacity="0.05"/>
</linearGradient>
</defs>
</svg>
