<svg width="17" height="17" viewBox="0 0 17 17" fill="none" xmlns="http://www.w3.org/2000/svg">
<path d="M4.78125 2.125V3.71875M12.2187 2.125V3.71875M2.125 13.2812V5.3125C2.125 4.88981 2.29291 4.48443 2.5918 4.18555C2.89068 3.88666 3.29606 3.71875 3.71875 3.71875H13.2812C13.7039 3.71875 14.1093 3.88666 14.4082 4.18555C14.7071 4.48443 14.875 4.88981 14.875 5.3125V13.2812M2.125 13.2812C2.125 13.7039 2.29291 14.1093 2.5918 14.4082C2.89068 14.7071 3.29606 14.875 3.71875 14.875H13.2812C13.7039 14.875 14.1093 14.7071 14.4082 14.4082C14.7071 14.1093 14.875 13.7039 14.875 13.2812M2.125 13.2812V7.96875C2.125 7.54606 2.29291 7.14068 2.5918 6.8418C2.89068 6.54291 3.29606 6.375 3.71875 6.375H13.2812C13.7039 6.375 14.1093 6.54291 14.4082 6.8418C14.7071 7.14068 14.875 7.54606 14.875 7.96875V13.2812M8.5 9.03125H8.50567V9.03692H8.5V9.03125ZM8.5 10.625H8.50567V10.6307H8.5V10.625ZM8.5 12.2187H8.50567V12.2244H8.5V12.2187ZM6.90625 10.625H6.91192V10.6307H6.90625V10.625ZM6.90625 12.2187H6.91192V12.2244H6.90625V12.2187ZM5.3125 10.625H5.31817V10.6307H5.3125V10.625ZM5.3125 12.2187H5.31817V12.2244H5.3125V12.2187ZM10.0937 9.03125H10.0994V9.03692H10.0937V9.03125ZM10.0937 10.625H10.0994V10.6307H10.0937V10.625ZM10.0937 12.2187H10.0994V12.2244H10.0937V12.2187ZM11.6875 9.03125H11.6932V9.03692H11.6875V9.03125ZM11.6875 10.625H11.6932V10.6307H11.6875V10.625Z" stroke="#B6B6B6" stroke-width="1.5" stroke-linecap="round" stroke-linejoin="round"/>
</svg>
