<svg width="412" height="412" viewBox="0 0 412 412" fill="none" xmlns="http://www.w3.org/2000/svg">
<path d="M206 393.814C313.213 393.814 400.126 343.634 400.126 281.734C400.126 219.833 313.213 169.653 206 169.653C98.787 169.653 11.8738 219.833 11.8738 281.734C11.8738 343.634 98.787 393.814 206 393.814Z" fill="#F0F0F0"/>
<path d="M165.83 366.663C202.801 366.663 232.772 349.361 232.772 328.018C232.772 306.674 202.801 289.372 165.83 289.372C128.859 289.372 98.8882 306.674 98.8882 328.018C98.8882 349.361 128.859 366.663 165.83 366.663Z" fill="#E0E0E0"/>
<path d="M356.199 279.666L348.346 275.134C348.346 275.134 346.426 258.324 347.703 245.305C349.5 227.012 361.316 204.995 375.406 210.169C389.497 215.344 368.946 233.967 364.373 249.483C359.8 264.998 356.199 279.666 356.199 279.666Z" fill="#00BFA6"/>
<path opacity="0.15" d="M356.199 279.666L348.346 275.134C348.346 275.134 346.426 258.324 347.703 245.305C349.5 227.012 361.316 204.995 375.406 210.169C389.497 215.344 368.946 233.967 364.373 249.483C359.8 264.998 356.199 279.666 356.199 279.666Z" fill="black"/>
<path d="M352.071 277.762C352.196 277.756 352.314 277.7 352.398 277.608C352.483 277.515 352.528 277.393 352.524 277.268C351.148 236.62 371.385 216.168 371.583 215.97C371.672 215.881 371.723 215.759 371.723 215.633C371.723 215.506 371.672 215.384 371.583 215.295C371.539 215.251 371.487 215.216 371.43 215.192C371.373 215.168 371.311 215.156 371.249 215.156C371.187 215.156 371.126 215.168 371.068 215.192C371.011 215.216 370.959 215.251 370.915 215.295C370.701 215.492 350.175 236.241 351.568 277.301C351.57 277.364 351.585 277.427 351.611 277.484C351.638 277.542 351.676 277.594 351.722 277.637C351.769 277.68 351.824 277.713 351.884 277.735C351.944 277.756 352.007 277.765 352.071 277.762Z" fill="white"/>
<path d="M361.134 282.492L355.548 279.27C355.548 279.27 354.592 267.734 360.253 253.726C365.197 241.531 377.392 231.404 383.539 233.53C389.686 235.656 389.529 240.015 386.53 244.588C383.531 249.161 365.312 260.046 361.134 282.492Z" fill="#00BFA6"/>
<path d="M358.185 281.272C358.311 281.27 358.431 281.219 358.52 281.13C358.609 281.041 358.66 280.921 358.662 280.795C358.547 255.086 382.682 237.716 382.929 237.543C382.981 237.507 383.025 237.462 383.058 237.409C383.092 237.357 383.114 237.298 383.124 237.236C383.134 237.174 383.131 237.111 383.116 237.051C383.101 236.99 383.074 236.933 383.036 236.884C382.964 236.782 382.854 236.713 382.73 236.691C382.607 236.67 382.48 236.697 382.377 236.768C382.13 236.941 357.6 254.608 357.707 280.795C357.707 280.921 357.757 281.043 357.847 281.132C357.936 281.222 358.058 281.272 358.185 281.272Z" fill="white"/>
<path d="M65.6399 269.572L72.8911 264.677C72.8911 264.677 76.08 245.725 73.1136 229.006C68.9441 205.555 52.736 197.76 46.968 200.232C41.2 202.704 39.964 209.683 50.7337 223.065C57.1197 230.934 65.4174 247.736 65.6399 269.572Z" fill="#00BFA6"/>
<g opacity="0.15">
<path d="M65.6399 269.572L72.8911 264.677C72.8911 264.677 76.08 245.725 73.1136 229.006C68.9441 205.555 52.736 197.76 46.968 200.232C41.2 202.704 39.964 209.683 50.7337 223.065C57.1197 230.934 65.4174 247.736 65.6399 269.572Z" fill="black"/>
</g>
<path d="M68.1282 260.178H68.0541C67.98 260.173 67.9078 260.153 67.8421 260.119C67.7763 260.084 67.7187 260.036 67.6728 259.978C67.6269 259.919 67.5938 259.852 67.5758 259.78C67.5577 259.708 67.555 259.633 67.5679 259.56C70.1882 237.485 60.8688 213.523 50.7254 203.989C50.6277 203.891 50.573 203.757 50.573 203.619C50.573 203.48 50.6277 203.347 50.7254 203.248C50.7737 203.199 50.8314 203.159 50.8951 203.133C50.9587 203.106 51.0271 203.092 51.0962 203.092C51.1652 203.092 51.2336 203.106 51.2973 203.133C51.3609 203.159 51.4186 203.199 51.467 203.248C61.7999 212.955 71.2924 237.312 68.6391 259.708C68.6236 259.835 68.5636 259.951 68.47 260.037C68.3764 260.123 68.2553 260.173 68.1282 260.178Z" fill="white"/>
<path d="M46.6549 282.377C45.5013 283.069 42.1393 280.572 41.2082 279.971C39.6125 278.929 38.3126 277.493 37.4343 275.801C36.449 273.883 36.0834 271.706 36.3878 269.572C36.5566 268.458 36.8016 267.356 37.1212 266.276C37.4096 265.196 37.698 264.117 37.9452 263.029C38.3106 261.971 38.451 260.849 38.3572 259.733C38.0358 257.533 36.05 256.025 34.2372 254.731C32.2431 253.289 30.1172 251.386 30.1172 248.733C30.2188 246.648 31.0167 244.658 32.3832 243.08C33.6192 241.432 35.1024 239.998 36.2148 238.276C37.0846 237.083 37.5286 235.632 37.4755 234.156C37.3323 233.246 37.0072 232.375 36.5197 231.594C35.5473 229.88 34.2866 228.298 33.6027 226.477C32.9188 224.655 32.9682 222.315 34.4267 220.956C35.5885 219.843 37.3601 219.662 38.9669 219.736C40.481 219.887 41.9437 220.368 43.2517 221.145C47.5118 223.411 50.0168 228.355 54.5241 230.077C56.2627 230.737 58.1579 230.852 59.9625 231.297C61.767 231.742 63.6293 232.624 64.4945 234.263C66.2001 237.518 63.2255 241.622 64.445 245.074C65.5327 248.139 68.565 249.26 70.2789 252.004C70.9746 253.223 71.2632 254.631 71.1029 256.025C71.0063 258.378 70.4784 260.694 69.5456 262.856C68.4727 265.099 67.2619 267.273 65.92 269.366C65.92 269.366 46.8279 282.27 46.6549 282.377Z" fill="#00BFA6"/>
<path d="M57.7953 275.546C57.7261 275.545 57.6577 275.53 57.5941 275.502C57.5306 275.475 57.473 275.435 57.4248 275.385C57.3766 275.336 57.3387 275.277 57.3132 275.212C57.2877 275.148 57.2751 275.079 57.2762 275.01C57.7376 254.146 47.4706 231.338 40.2029 224.746C40.0996 224.653 40.0373 224.523 40.0296 224.384C40.0219 224.245 40.0694 224.108 40.1617 224.004C40.2101 223.955 40.2677 223.916 40.3314 223.889C40.3951 223.862 40.4635 223.849 40.5325 223.849C40.6016 223.849 40.67 223.862 40.7336 223.889C40.7973 223.916 40.855 223.955 40.9033 224.004C48.3193 230.679 58.7924 253.883 58.3227 275.035C58.3216 275.103 58.3071 275.17 58.28 275.233C58.2529 275.295 58.2138 275.352 58.1648 275.399C58.1159 275.447 58.058 275.484 57.9946 275.509C57.9312 275.534 57.8635 275.547 57.7953 275.546Z" fill="white"/>
<path d="M53.9473 250.125C53.8986 250.137 53.8477 250.137 53.799 250.125C47.0586 248.181 38.7033 247.983 38.6209 247.975C38.552 247.974 38.484 247.959 38.4209 247.931C38.3578 247.904 38.3008 247.864 38.2532 247.814C38.2057 247.764 38.1685 247.705 38.1439 247.641C38.1193 247.576 38.1078 247.508 38.11 247.439C38.1087 247.369 38.1219 247.3 38.1487 247.236C38.1755 247.172 38.2153 247.114 38.2656 247.066C38.316 247.018 38.3757 246.981 38.4412 246.957C38.5066 246.933 38.5762 246.924 38.6456 246.928C38.728 246.928 47.2152 247.134 54.0874 249.112C54.2202 249.152 54.3318 249.243 54.3982 249.364C54.4645 249.486 54.4801 249.629 54.4417 249.763C54.4096 249.868 54.3441 249.961 54.2549 250.026C54.1658 250.092 54.0578 250.126 53.9473 250.125Z" fill="white"/>
<path d="M248.156 255.226L245.033 253.421C244.512 253.083 244.079 252.627 243.769 252.09C243.458 251.553 243.278 250.951 243.245 250.331V120.535C243.279 119.916 243.458 119.314 243.767 118.778C244.076 118.241 244.507 117.784 245.025 117.445L331.833 67.329C332.386 67.0488 332.997 66.9028 333.617 66.9028C334.237 66.9028 334.848 67.0488 335.401 67.329L338.524 69.1336C339.044 69.4714 339.477 69.9274 339.788 70.4643C340.099 71.0013 340.278 71.6041 340.312 72.2236V202.02C340.278 202.638 340.099 203.24 339.79 203.777C339.481 204.314 339.05 204.77 338.532 205.11L251.724 255.234C251.171 255.515 250.559 255.66 249.939 255.659C249.319 255.658 248.707 255.509 248.156 255.226Z" fill="#455A64"/>
<path d="M340.312 71.9352C340.188 71.0123 339.439 70.6744 338.54 71.1936L251.724 121.317C251.199 121.647 250.765 122.103 250.463 122.644L243.764 118.78C244.064 118.234 244.498 117.775 245.025 117.445L331.833 67.329C332.386 67.0488 332.997 66.9028 333.617 66.9028C334.237 66.9028 334.848 67.0488 335.401 67.329L338.524 69.1336C339.006 69.4441 339.416 69.8552 339.724 70.3388C340.033 70.8223 340.233 71.3669 340.312 71.9352Z" fill="#455A64"/>
<path d="M251.419 255.374C250.891 255.588 250.324 255.686 249.756 255.662C249.187 255.637 248.63 255.492 248.123 255.234L244.992 253.421C244.474 253.081 244.043 252.625 243.734 252.088C243.425 251.551 243.246 250.95 243.212 250.331V120.535C243.233 119.915 243.412 119.311 243.731 118.78L250.43 122.644C250.104 123.176 249.923 123.784 249.903 124.407V254.204C249.936 255.226 250.578 255.695 251.419 255.374Z" fill="#263238"/>
<path d="M249.936 124.424V254.204C249.936 255.341 250.76 255.803 251.724 255.234L338.532 205.11C339.05 204.77 339.481 204.314 339.79 203.777C340.099 203.24 340.278 202.639 340.312 202.02V72.2236C340.312 71.0865 339.488 70.6251 338.532 71.1936L251.724 121.318C251.201 121.657 250.767 122.116 250.456 122.656C250.145 123.196 249.967 123.802 249.936 124.424Z" fill="#37474F"/>
<path d="M229.665 173.864C228.545 173.196 223.345 170.238 223.073 170.082C222.861 169.955 222.681 169.783 222.544 169.577C222.408 169.372 222.319 169.138 222.285 168.894C222.251 168.649 222.273 168.4 222.348 168.165C222.423 167.93 222.55 167.715 222.719 167.536L243.245 145.518L249.936 149.358L229.418 171.392C229.257 171.563 229.134 171.768 229.059 171.99C228.983 172.213 228.956 172.45 228.979 172.684C229.003 172.918 229.076 173.145 229.195 173.348C229.313 173.552 229.473 173.728 229.665 173.864Z" fill="#455A64"/>
<path d="M249.936 149.383L229.418 171.392C229.19 171.635 229.041 171.942 228.991 172.271C228.941 172.601 228.993 172.938 229.138 173.238C229.284 173.538 229.517 173.786 229.806 173.951C230.096 174.116 230.429 174.189 230.761 174.16L249.936 172.578V149.383Z" fill="#37474F"/>
<path d="M295.124 109.757C305.243 103.915 313.441 108.653 313.441 120.337C313.441 132.021 305.243 146.219 295.124 152.061C285.005 157.903 276.806 153.165 276.806 141.489C276.806 129.813 285.005 115.599 295.124 109.757Z" fill="#00BFA6"/>
<path d="M294.992 118.953C298.288 117.057 300.933 118.59 300.933 122.381C300.821 124.441 300.224 126.446 299.192 128.233C298.16 130.019 296.721 131.538 294.992 132.664C291.696 134.559 289.043 133.027 289.043 129.236C289.156 127.175 289.754 125.17 290.787 123.383C291.821 121.596 293.262 120.078 294.992 118.953Z" fill="white"/>
<path d="M306.709 139.157C306.709 132.936 302.334 130.406 296.945 133.521L293.575 135.465C288.186 138.58 283.81 146.177 283.81 152.382V154.088C284.828 154.413 285.89 154.577 286.958 154.574C289.849 154.476 292.664 153.624 295.124 152.102C299.808 149.217 303.771 145.299 306.709 140.648V139.157Z" fill="white"/>
<path d="M283.522 209.898L306.726 196.499C307.715 195.931 308.514 196.392 308.514 197.529V205.003C308.48 205.622 308.301 206.225 307.99 206.762C307.679 207.299 307.246 207.755 306.726 208.093L283.522 221.491C282.533 222.06 281.734 221.598 281.734 220.461V212.988C281.768 212.368 281.947 211.765 282.258 211.228C282.568 210.691 283.002 210.235 283.522 209.898Z" fill="#00BFA6"/>
<path d="M272.159 193.203L318.064 166.687C319.242 166.003 320.206 166.555 320.206 167.923V170.7C320.166 171.443 319.951 172.166 319.579 172.81C319.207 173.455 318.688 174.002 318.064 174.408L272.134 200.924C270.956 201.608 270 201.056 270 199.688V196.936C270.038 196.187 270.253 195.458 270.629 194.809C271.004 194.16 271.529 193.609 272.159 193.203Z" fill="#FAFAFA"/>
<path d="M277.531 174.012C278.158 173.65 278.644 173.592 278.99 173.848C279.336 174.103 279.509 174.672 279.509 175.545C279.526 176.342 279.348 177.132 278.99 177.844C278.666 178.488 278.159 179.021 277.531 179.377L276.295 180.093V182.755C276.293 182.847 276.271 182.937 276.229 183.019C276.2 183.093 276.148 183.157 276.081 183.2L275.455 183.562C275.434 183.579 275.408 183.587 275.381 183.587C275.354 183.587 275.328 183.579 275.307 183.562C275.262 183.507 275.241 183.436 275.249 183.365V175.66C275.248 175.569 275.268 175.479 275.307 175.397C275.338 175.323 275.389 175.261 275.455 175.215L277.531 174.012ZM276.295 178.602L277.49 177.91C277.779 177.747 278.022 177.515 278.199 177.234C278.386 176.903 278.478 176.527 278.463 176.146C278.463 175.702 278.372 175.446 278.199 175.372C278.077 175.342 277.949 175.341 277.826 175.368C277.704 175.395 277.589 175.45 277.49 175.528L276.295 176.221V178.602Z" fill="#FAFAFA"/>
<path d="M282.962 170.873C283.044 170.823 283.11 170.823 283.151 170.873C283.204 170.947 283.24 171.031 283.258 171.12L285.162 177.564C285.162 177.564 285.162 177.613 285.162 177.638C285.16 177.73 285.138 177.82 285.096 177.901C285.067 177.976 285.015 178.04 284.947 178.083L284.387 178.404C284.288 178.462 284.214 178.47 284.173 178.404C284.133 178.363 284.105 178.312 284.09 178.256L283.753 177.127L281.281 178.544L280.951 180.06C280.928 180.142 280.897 180.222 280.86 180.299C280.82 180.4 280.743 180.482 280.646 180.53L280.086 180.851C280.065 180.869 280.039 180.878 280.012 180.878C279.985 180.878 279.958 180.869 279.938 180.851C279.894 180.798 279.874 180.73 279.88 180.662C279.875 180.632 279.875 180.601 279.88 180.571L281.775 171.936C281.798 171.809 281.834 171.685 281.882 171.565C281.922 171.478 281.989 171.406 282.072 171.359L282.962 170.873ZM283.39 175.866L282.566 172.957L281.742 176.847L283.39 175.866Z" fill="#FAFAFA"/>
<path d="M288.046 167.816C288.321 167.642 288.635 167.537 288.96 167.511C289.19 167.49 289.421 167.542 289.62 167.659C289.8 167.776 289.941 167.946 290.023 168.145C290.113 168.348 290.164 168.566 290.172 168.788C290.177 168.88 290.157 168.971 290.114 169.052C290.085 169.126 290.033 169.19 289.966 169.233L289.422 169.546C289.331 169.596 289.265 169.604 289.224 169.546C289.173 169.512 289.131 169.467 289.1 169.414C289.067 169.34 289.02 169.273 288.96 169.218C288.901 169.163 288.831 169.12 288.754 169.093C288.503 169.057 288.249 169.122 288.046 169.274C287.912 169.36 287.785 169.457 287.667 169.563C287.544 169.675 287.436 169.802 287.345 169.942C287.258 170.076 287.186 170.219 287.131 170.37C287.082 170.513 287.057 170.664 287.057 170.815C287.047 170.954 287.073 171.093 287.131 171.219C287.156 171.263 287.192 171.3 287.235 171.328C287.278 171.355 287.327 171.371 287.378 171.375C287.531 171.402 287.687 171.402 287.84 171.375L288.557 171.219C288.824 171.14 289.102 171.106 289.381 171.12C289.579 171.119 289.773 171.183 289.933 171.301C290.084 171.428 290.193 171.597 290.246 171.787C290.326 172.054 290.363 172.333 290.353 172.611C290.352 172.979 290.3 173.346 290.196 173.699C290.096 174.062 289.949 174.411 289.76 174.737C289.56 175.071 289.322 175.381 289.051 175.66C288.774 175.948 288.458 176.194 288.112 176.394C287.858 176.548 287.579 176.657 287.288 176.715C287.051 176.76 286.806 176.741 286.579 176.657C286.373 176.561 286.203 176.403 286.093 176.204C285.958 175.95 285.885 175.668 285.879 175.38C285.878 175.286 285.897 175.193 285.936 175.108C285.973 175.038 286.027 174.978 286.093 174.935L286.637 174.622C286.719 174.572 286.785 174.556 286.834 174.581C286.884 174.605 286.917 174.647 286.95 174.721C286.984 174.806 287.028 174.886 287.082 174.96C287.133 175.032 287.205 175.086 287.288 175.116C287.396 175.141 287.509 175.141 287.617 175.116C287.792 175.075 287.959 175.005 288.112 174.91C288.271 174.819 288.423 174.714 288.565 174.597C288.842 174.378 289.062 174.095 289.208 173.773C289.274 173.608 289.307 173.432 289.306 173.254C289.314 173.19 289.309 173.124 289.29 173.062C289.272 172.999 289.241 172.941 289.199 172.892C289.155 172.852 289.102 172.823 289.045 172.806C288.988 172.789 288.929 172.784 288.87 172.793C288.683 172.8 288.497 172.831 288.318 172.883C288.103 172.933 287.856 172.99 287.568 173.04C287.347 173.095 287.118 173.112 286.892 173.089C286.714 173.078 286.545 173.005 286.414 172.883C286.272 172.744 286.172 172.567 286.126 172.372C286.059 172.086 286.029 171.793 286.035 171.499C286.035 171.136 286.087 170.775 286.192 170.428C286.29 170.07 286.434 169.727 286.62 169.406C286.798 169.087 287.014 168.791 287.263 168.524C287.489 168.252 287.752 168.014 288.046 167.816Z" fill="#FAFAFA"/>
<path d="M293.459 164.701C293.733 164.522 294.048 164.414 294.374 164.388C294.604 164.369 294.834 164.42 295.033 164.536C295.209 164.657 295.347 164.826 295.429 165.023C295.519 165.225 295.569 165.444 295.577 165.665C295.587 165.757 295.566 165.85 295.519 165.929C295.49 166.004 295.438 166.067 295.371 166.11L294.827 166.423C294.745 166.473 294.679 166.489 294.629 166.423C294.577 166.39 294.536 166.341 294.514 166.283C294.439 166.139 294.313 166.027 294.16 165.97C294.037 165.952 293.912 165.959 293.791 165.99C293.671 166.021 293.558 166.076 293.459 166.151C293.322 166.235 293.192 166.332 293.072 166.44C292.952 166.553 292.847 166.68 292.759 166.819C292.668 166.951 292.596 167.095 292.545 167.247C292.493 167.39 292.466 167.541 292.462 167.692C292.453 167.831 292.478 167.97 292.536 168.096C292.562 168.14 292.598 168.178 292.641 168.205C292.684 168.232 292.733 168.249 292.784 168.253C292.936 168.279 293.092 168.279 293.245 168.253L293.962 168.096C294.23 168.021 294.508 167.988 294.786 167.997C294.985 167.995 295.179 168.059 295.338 168.178C295.489 168.307 295.6 168.476 295.659 168.665C295.732 168.933 295.765 169.211 295.758 169.489C295.758 169.857 295.705 170.223 295.602 170.576C295.501 170.94 295.354 171.289 295.165 171.615C294.966 171.952 294.729 172.264 294.456 172.546C294.178 172.826 293.865 173.07 293.525 173.271C293.271 173.425 292.992 173.533 292.701 173.592C292.467 173.637 292.225 173.617 292.001 173.534C291.791 173.442 291.617 173.282 291.506 173.081C291.371 172.828 291.3 172.545 291.3 172.257C291.291 172.165 291.311 172.073 291.358 171.994C291.387 171.919 291.439 171.856 291.506 171.812L292.05 171.499C292.133 171.45 292.207 171.433 292.248 171.458C292.277 171.471 292.302 171.49 292.322 171.515C292.342 171.539 292.356 171.567 292.363 171.598C292.401 171.681 292.445 171.761 292.495 171.837C292.549 171.909 292.624 171.964 292.71 171.994C292.818 172.019 292.931 172.019 293.039 171.994C293.214 171.952 293.381 171.883 293.534 171.788C293.689 171.694 293.838 171.59 293.978 171.474C294.123 171.362 294.251 171.228 294.358 171.079C294.464 170.937 294.553 170.782 294.621 170.618C294.687 170.452 294.721 170.276 294.72 170.098C294.728 170.034 294.722 169.968 294.704 169.906C294.685 169.844 294.655 169.786 294.613 169.736C294.568 169.697 294.516 169.667 294.459 169.65C294.402 169.633 294.342 169.629 294.283 169.637C294.099 169.648 293.917 169.679 293.74 169.728C293.525 169.777 293.27 169.835 292.99 169.884C292.766 169.939 292.535 169.956 292.306 169.934C292.127 169.924 291.957 169.851 291.828 169.728C291.688 169.587 291.591 169.41 291.548 169.217C291.474 168.934 291.441 168.643 291.449 168.352C291.452 167.986 291.504 167.623 291.605 167.272C291.707 166.916 291.851 166.573 292.034 166.25C292.212 165.93 292.431 165.633 292.685 165.369C292.907 165.107 293.168 164.882 293.459 164.701Z" fill="#FAFAFA"/>
<path d="M299.466 165.731L298.799 169.678C298.779 169.797 298.746 169.913 298.7 170.024C298.668 170.113 298.607 170.189 298.527 170.238L297.901 170.601C297.818 170.65 297.761 170.65 297.719 170.601C297.664 170.533 297.632 170.449 297.629 170.362L296.64 163.399C296.64 163.399 296.64 163.333 296.64 163.309C296.642 163.217 296.665 163.127 296.706 163.045C296.737 162.972 296.789 162.909 296.854 162.864L297.423 162.534C297.47 162.515 297.524 162.515 297.571 162.534C297.621 162.534 297.654 162.6 297.67 162.732L298.321 167.42L298.89 163.902C298.904 163.814 298.929 163.728 298.964 163.646C298.996 163.542 299.067 163.454 299.161 163.399L299.796 163.028C299.887 162.979 299.953 162.987 299.994 163.028C300.029 163.081 300.054 163.14 300.068 163.202L300.645 166.061L301.296 160.622C301.303 160.515 301.334 160.411 301.386 160.318C301.425 160.256 301.475 160.203 301.535 160.161L302.103 159.831C302.125 159.815 302.151 159.807 302.177 159.807C302.204 159.807 302.23 159.815 302.251 159.831C302.275 159.858 302.293 159.89 302.304 159.924C302.315 159.958 302.32 159.993 302.317 160.029C302.321 160.062 302.321 160.095 302.317 160.128L301.329 168.228C301.312 168.346 301.282 168.463 301.238 168.574C301.2 168.662 301.137 168.737 301.057 168.788L300.422 169.151C300.348 169.192 300.29 169.192 300.249 169.151C300.207 169.075 300.174 168.995 300.15 168.912L299.466 165.731Z" fill="#FAFAFA"/>
<path d="M303.323 162.237C303.341 161.78 303.396 161.326 303.487 160.878C303.582 160.44 303.725 160.014 303.916 159.609C304.098 159.215 304.33 158.846 304.608 158.513C304.89 158.182 305.227 157.903 305.605 157.689C305.895 157.492 306.235 157.38 306.586 157.367C306.847 157.37 307.098 157.474 307.286 157.656C307.486 157.88 307.63 158.148 307.706 158.439C307.813 158.817 307.871 159.207 307.879 159.6C307.879 159.749 307.879 159.914 307.879 160.095C307.879 160.276 307.879 160.466 307.879 160.663C307.879 160.861 307.879 161.051 307.879 161.232C307.879 161.413 307.879 161.586 307.879 161.743C307.862 162.197 307.806 162.649 307.715 163.094C307.619 163.531 307.479 163.956 307.294 164.363C307.107 164.756 306.872 165.124 306.594 165.459C306.312 165.787 305.978 166.065 305.605 166.283C305.308 166.479 304.963 166.59 304.608 166.604C304.48 166.607 304.352 166.584 304.233 166.535C304.114 166.487 304.006 166.415 303.916 166.324C303.701 166.094 303.553 165.809 303.487 165.5C303.389 165.12 303.334 164.731 303.323 164.338C303.323 164.19 303.323 164.025 303.323 163.844C303.323 163.663 303.323 163.473 303.323 163.276C303.323 163.078 303.323 162.896 303.323 162.707C303.323 162.517 303.314 162.386 303.323 162.237ZM306.833 160.268C306.851 160.066 306.829 159.863 306.766 159.671C306.704 159.478 306.603 159.3 306.47 159.147C306.256 158.958 305.959 158.966 305.605 159.147C305.221 159.373 304.915 159.713 304.732 160.12C304.498 160.6 304.374 161.126 304.369 161.66C304.369 161.965 304.369 162.303 304.369 162.674C304.369 163.045 304.369 163.374 304.369 163.671C304.351 163.873 304.373 164.076 304.436 164.268C304.498 164.461 304.599 164.639 304.732 164.792C304.946 164.973 305.243 164.956 305.605 164.75C305.983 164.523 306.285 164.187 306.47 163.786C306.704 163.309 306.828 162.785 306.833 162.254C306.833 161.941 306.833 161.603 306.833 161.232C306.833 160.861 306.841 160.565 306.833 160.268Z" fill="#FAFAFA"/>
<path d="M311.472 154.401C312.123 154.03 312.609 153.973 312.947 154.245C313.147 154.465 313.296 154.727 313.383 155.012C313.47 155.297 313.493 155.598 313.45 155.893C313.456 156.452 313.37 157.009 313.194 157.541C313.027 158.036 312.767 158.494 312.428 158.892L313.499 161.224C313.502 161.262 313.502 161.301 313.499 161.339C313.499 161.414 313.483 161.487 313.45 161.553C313.427 161.613 313.387 161.665 313.334 161.702L312.675 162.081C312.568 162.139 312.494 162.147 312.444 162.081C312.401 162.038 312.365 161.988 312.337 161.933L311.324 159.732L310.294 160.326V163.111C310.294 163.202 310.275 163.292 310.236 163.375C310.202 163.446 310.151 163.508 310.088 163.556L309.461 163.918C309.441 163.936 309.414 163.945 309.387 163.945C309.36 163.945 309.334 163.936 309.313 163.918C309.289 163.893 309.271 163.863 309.26 163.831C309.249 163.798 309.244 163.763 309.247 163.729V156.024C309.25 155.933 309.272 155.843 309.313 155.761C309.342 155.686 309.394 155.623 309.461 155.579L311.472 154.401ZM310.31 158.834L311.472 158.208C311.756 158.05 311.999 157.827 312.181 157.557C312.371 157.24 312.463 156.872 312.444 156.502C312.444 156.057 312.354 155.81 312.181 155.761C311.93 155.727 311.676 155.792 311.472 155.942L310.351 156.585L310.31 158.834Z" fill="#FAFAFA"/>
<path d="M316.993 151.229C317.292 151.033 317.634 150.915 317.99 150.883C318.248 150.873 318.499 150.965 318.69 151.138C318.908 151.367 319.06 151.652 319.127 151.962C319.238 152.371 319.299 152.791 319.308 153.214C319.308 153.791 319.308 154.385 319.308 154.986C319.291 155.477 319.231 155.965 319.127 156.445C319.033 156.89 318.889 157.324 318.698 157.738C318.515 158.118 318.282 158.473 318.006 158.793C317.731 159.12 317.402 159.399 317.034 159.617L315.081 160.68C315.06 160.697 315.034 160.707 315.007 160.707C314.98 160.707 314.954 160.697 314.933 160.68C314.909 160.655 314.89 160.625 314.879 160.592C314.868 160.56 314.863 160.525 314.867 160.49V152.786C314.869 152.694 314.892 152.604 314.933 152.522C314.962 152.448 315.014 152.384 315.081 152.341L316.993 151.229ZM318.262 153.791C318.258 153.568 318.225 153.346 318.163 153.132C318.125 152.97 318.042 152.821 317.924 152.704C317.872 152.652 317.81 152.611 317.742 152.584C317.674 152.557 317.602 152.545 317.528 152.547C317.322 152.561 317.123 152.629 316.952 152.745L315.913 153.338V158.711L316.993 158.093C317.202 157.971 317.388 157.815 317.545 157.631C317.698 157.45 317.828 157.251 317.932 157.038C318.035 156.811 318.112 156.573 318.163 156.329C318.22 156.075 318.253 155.815 318.262 155.555C318.286 154.953 318.286 154.368 318.262 153.791Z" fill="#FAFAFA"/>
<path d="M203.841 31.6335C205.263 31.9499 206.634 32.4659 207.912 33.1661C209.135 33.8239 210.232 34.6944 211.15 35.737C212.028 36.7398 212.681 37.9202 213.062 39.1978C213.451 40.5653 213.479 42.0102 213.144 43.3919C212.923 44.4874 212.489 45.5289 211.867 46.4572C211.299 47.251 210.622 47.9611 209.856 48.5667C209.104 49.1505 208.302 49.6661 207.458 50.1075L205.085 51.3683C204.37 51.7411 203.692 52.1797 203.058 52.6784C202.485 53.1181 202.046 53.7087 201.789 54.3841C201.664 54.6926 201.456 54.9606 201.188 55.1587C201.061 55.2571 200.914 55.3254 200.757 55.3582C200.599 55.391 200.437 55.3876 200.281 55.3482L196.788 54.5736C196.619 54.5383 196.46 54.4699 196.318 54.3723C196.177 54.2746 196.056 54.1498 195.964 54.0051C195.865 53.8705 195.799 53.7146 195.772 53.5499C195.745 53.3853 195.757 53.2166 195.807 53.0575C196.088 51.9754 196.584 50.961 197.266 50.0746C197.887 49.2904 198.607 48.5897 199.408 47.9899C200.188 47.4187 201.015 46.9143 201.88 46.4819C202.704 46.0617 203.528 45.6579 204.245 45.2542C204.912 44.8957 205.539 44.4676 206.115 43.977C206.621 43.5534 206.972 42.9737 207.112 42.329C207.243 41.7691 207.237 41.1859 207.093 40.6291C206.95 40.0723 206.674 39.5586 206.288 39.1319C205.325 38.0799 204.037 37.3807 202.63 37.146C200.026 36.5692 197.829 37.4454 196.038 39.7746C195.865 40.0288 195.647 40.2494 195.395 40.4255C195.111 40.5665 194.782 40.5902 194.48 40.4915L190.764 39.6675C190.499 39.6162 190.265 39.4622 190.113 39.239C190.032 39.1197 189.978 38.9844 189.954 38.8422C189.929 38.7 189.936 38.5543 189.973 38.415C190.289 37.27 190.877 36.2183 191.687 35.3497C192.601 34.3423 193.686 33.5053 194.892 32.8777C196.212 32.1875 197.633 31.7145 199.103 31.4769C200.678 31.2208 202.287 31.274 203.841 31.6335ZM199.894 58.1498C200.221 58.2265 200.505 58.4281 200.685 58.7114C200.865 58.9948 200.927 59.3374 200.858 59.6659L199.968 63.7035C199.938 63.8726 199.873 64.0334 199.776 64.1754C199.68 64.3174 199.554 64.4374 199.408 64.5275C199.27 64.6226 199.114 64.6879 198.949 64.7191C198.785 64.7503 198.615 64.7468 198.452 64.7088L194.464 63.7942C194.294 63.7656 194.133 63.7007 193.991 63.604C193.849 63.5073 193.729 63.381 193.64 63.2339C193.548 63.0947 193.485 62.9381 193.455 62.7738C193.425 62.6094 193.429 62.4407 193.467 62.278L194.365 58.2404C194.442 57.9131 194.643 57.6286 194.926 57.4471C195.209 57.2656 195.552 57.2014 195.881 57.2681L199.894 58.1498Z" fill="#00BFA6"/>
<path d="M208.241 70.2872C209.234 70.1281 210.243 70.1086 211.241 70.2295C212.194 70.3428 213.119 70.6217 213.976 71.0535C214.792 71.4769 215.511 72.0663 216.086 72.7839C216.603 73.4862 216.966 74.2891 217.154 75.1406C217.341 75.9922 217.348 76.8736 217.173 77.7279C217.016 78.3848 216.764 79.015 216.424 79.5984C216.096 80.1659 215.715 80.7011 215.287 81.197C214.866 81.6914 214.463 82.1611 214.092 82.6143C213.729 83.0365 213.406 83.4917 213.128 83.9739C212.867 84.3965 212.735 84.8863 212.749 85.3829C212.741 85.615 212.676 85.8416 212.559 86.0421C212.499 86.1345 212.421 86.2131 212.329 86.2728C212.236 86.3325 212.132 86.3718 212.023 86.3882L209.551 86.7837C209.436 86.8047 209.317 86.8023 209.203 86.7769C209.088 86.7514 208.98 86.7033 208.884 86.6354C208.787 86.5742 208.705 86.4907 208.647 86.3919C208.588 86.293 208.553 86.1816 208.546 86.0668C208.443 85.3001 208.499 84.5201 208.711 83.7761C208.905 83.1174 209.182 82.4861 209.535 81.8974C209.882 81.3324 210.279 80.8001 210.722 80.3071C211.158 79.8127 211.546 79.3512 211.925 78.9063C212.263 78.5089 212.556 78.075 212.798 77.6126C213.013 77.2146 213.091 76.7573 213.021 76.3107C212.959 75.9176 212.803 75.5452 212.566 75.2253C212.329 74.9054 212.019 74.6474 211.661 74.4731C210.775 74.0452 209.772 73.9235 208.81 74.1271C207.938 74.2545 207.128 74.6484 206.489 75.2547C205.85 75.861 205.415 76.6501 205.242 77.5137C205.194 77.7214 205.11 77.9193 204.995 78.0987C204.848 78.2552 204.648 78.352 204.434 78.3707L201.831 78.7909C201.648 78.8259 201.458 78.7874 201.303 78.6838C201.224 78.6293 201.157 78.5584 201.107 78.476C201.058 78.3936 201.026 78.3015 201.015 78.2059C200.937 77.3882 201.065 76.5641 201.386 75.808C201.711 74.9282 202.191 74.1135 202.803 73.4019C203.473 72.6228 204.263 71.9553 205.143 71.4243C206.093 70.8485 207.145 70.4623 208.241 70.2872ZM212.493 88.2916C212.607 88.2736 212.723 88.2782 212.834 88.3051C212.946 88.3319 213.051 88.3806 213.144 88.4482C213.241 88.512 213.324 88.5957 213.386 88.6937C213.449 88.7917 213.49 88.9018 213.507 89.0167L213.968 91.8431C214.004 92.0723 213.948 92.3064 213.812 92.4946C213.676 92.6828 213.472 92.8099 213.243 92.8483L210.483 93.3015C210.253 93.337 210.02 93.2807 209.832 93.145C209.736 93.0803 209.655 92.9963 209.594 92.8983C209.533 92.8004 209.493 92.6907 209.477 92.5764L209.016 89.7501C208.995 89.6367 208.998 89.5201 209.025 89.408C209.052 89.2959 209.102 89.1906 209.172 89.0991C209.237 89.0036 209.321 88.9226 209.419 88.8616C209.517 88.8006 209.627 88.7608 209.741 88.7448L212.493 88.2916Z" fill="#00BFA6"/>
<g opacity="0.2">
<path d="M208.241 70.2872C209.234 70.1281 210.243 70.1086 211.241 70.2295C212.194 70.3428 213.119 70.6217 213.976 71.0535C214.792 71.4769 215.511 72.0663 216.086 72.7839C216.603 73.4862 216.966 74.2891 217.154 75.1406C217.341 75.9922 217.348 76.8736 217.173 77.7279C217.016 78.3848 216.764 79.015 216.424 79.5984C216.096 80.1659 215.715 80.7011 215.287 81.197C214.866 81.6914 214.463 82.1611 214.092 82.6143C213.729 83.0365 213.406 83.4917 213.128 83.9739C212.867 84.3965 212.735 84.8863 212.749 85.3829C212.741 85.615 212.676 85.8416 212.559 86.0421C212.499 86.1345 212.421 86.2131 212.329 86.2728C212.236 86.3325 212.132 86.3718 212.023 86.3882L209.551 86.7837C209.436 86.8047 209.317 86.8023 209.203 86.7769C209.088 86.7514 208.98 86.7033 208.884 86.6354C208.787 86.5742 208.705 86.4907 208.647 86.3919C208.588 86.293 208.553 86.1816 208.546 86.0668C208.443 85.3001 208.499 84.5201 208.711 83.7761C208.905 83.1174 209.182 82.4861 209.535 81.8974C209.882 81.3324 210.279 80.8001 210.722 80.3071C211.158 79.8127 211.546 79.3512 211.925 78.9063C212.263 78.5089 212.556 78.075 212.798 77.6126C213.013 77.2146 213.091 76.7573 213.021 76.3107C212.959 75.9176 212.803 75.5452 212.566 75.2253C212.329 74.9054 212.019 74.6474 211.661 74.4731C210.775 74.0452 209.772 73.9235 208.81 74.1271C207.938 74.2545 207.128 74.6484 206.489 75.2547C205.85 75.861 205.415 76.6501 205.242 77.5137C205.194 77.7214 205.11 77.9193 204.995 78.0987C204.848 78.2552 204.648 78.352 204.434 78.3707L201.831 78.7909C201.648 78.8259 201.458 78.7874 201.303 78.6838C201.224 78.6293 201.157 78.5584 201.107 78.476C201.058 78.3936 201.026 78.3015 201.015 78.2059C200.937 77.3882 201.065 76.5641 201.386 75.808C201.711 74.9282 202.191 74.1135 202.803 73.4019C203.473 72.6228 204.263 71.9553 205.143 71.4243C206.093 70.8485 207.145 70.4623 208.241 70.2872ZM212.493 88.2916C212.607 88.2736 212.723 88.2782 212.834 88.3051C212.946 88.3319 213.051 88.3806 213.144 88.4482C213.241 88.512 213.324 88.5957 213.386 88.6937C213.449 88.7917 213.49 88.9018 213.507 89.0167L213.968 91.8431C214.004 92.0723 213.948 92.3064 213.812 92.4946C213.676 92.6828 213.472 92.8099 213.243 92.8483L210.483 93.3015C210.253 93.337 210.02 93.2807 209.832 93.145C209.736 93.0803 209.655 92.9963 209.594 92.8983C209.533 92.8004 209.493 92.6907 209.477 92.5764L209.016 89.7501C208.995 89.6367 208.998 89.5201 209.025 89.408C209.052 89.2959 209.102 89.1906 209.172 89.0991C209.237 89.0036 209.321 88.9226 209.419 88.8616C209.517 88.8006 209.627 88.7608 209.741 88.7448L212.493 88.2916Z" fill="black"/>
</g>
<path d="M231.544 74.7286C231.656 74.8067 231.752 74.9069 231.824 75.0231C231.896 75.1393 231.944 75.269 231.964 75.4043C231.99 75.5383 231.989 75.6764 231.959 75.8097C231.929 75.943 231.872 76.0687 231.791 76.1788L229.83 78.9392C229.752 79.0516 229.652 79.1468 229.536 79.219C229.419 79.2913 229.29 79.3391 229.154 79.3595C229.02 79.3857 228.882 79.3839 228.749 79.3541C228.616 79.3243 228.49 79.2672 228.38 79.1864L225.677 77.2665C225.565 77.1894 225.47 77.0894 225.399 76.9729C225.328 76.8564 225.282 76.7262 225.265 76.5908C225.239 76.4568 225.241 76.3187 225.27 76.1854C225.3 76.0521 225.357 75.9264 225.438 75.8163L227.424 73.0559C227.585 72.8321 227.827 72.6807 228.098 72.6344C228.37 72.5882 228.649 72.6508 228.874 72.8087L231.544 74.7286ZM242.948 56.032C243.934 56.7227 244.811 57.5557 245.552 58.504C246.275 59.3861 246.833 60.3909 247.2 61.4704C247.542 62.505 247.657 63.601 247.538 64.684C247.398 65.839 246.961 66.9378 246.269 67.8729C245.755 68.629 245.093 69.2736 244.324 69.7681C243.647 70.1924 242.912 70.5145 242.141 70.7239C241.39 70.9202 240.623 71.0525 239.85 71.1195L237.658 71.3172C237.001 71.3698 236.35 71.4828 235.713 71.6551C235.126 71.7884 234.589 72.0855 234.164 72.512C233.973 72.7069 233.73 72.844 233.464 72.9075C233.337 72.9438 233.204 72.9493 233.075 72.9235C232.946 72.8977 232.825 72.8414 232.722 72.7592L230.333 71.0618C230.104 70.8987 229.948 70.6536 229.896 70.3779C229.865 70.2442 229.866 70.1052 229.899 69.9721C229.932 69.8389 229.996 69.7154 230.085 69.6115C230.644 68.8872 231.341 68.282 232.137 67.8317C232.854 67.4404 233.618 67.144 234.411 66.95C235.177 66.7643 235.957 66.6457 236.743 66.5957C237.518 66.5463 238.243 66.4886 238.919 66.4227C239.537 66.3681 240.148 66.2465 240.74 66.0601C241.258 65.8876 241.704 65.5487 242.009 65.096C242.284 64.7138 242.463 64.2708 242.531 63.8045C242.598 63.3382 242.552 62.8626 242.396 62.418C242.006 61.3198 241.261 60.3831 240.278 59.7565C238.499 58.4875 236.557 58.4463 234.453 59.6329C234.241 59.7677 234.006 59.8626 233.761 59.9131C233.632 59.922 233.504 59.9055 233.382 59.8644C233.261 59.8234 233.148 59.7587 233.052 59.6741L230.514 57.8695C230.422 57.8085 230.343 57.7297 230.282 57.6377C230.222 57.5457 230.18 57.4424 230.16 57.3339C230.14 57.2218 230.144 57.1068 230.171 56.9962C230.198 56.8856 230.247 56.7817 230.316 56.6912C230.915 55.924 231.693 55.3156 232.582 54.9196C233.592 54.4621 234.674 54.1833 235.779 54.0956C236.996 53.994 238.22 54.0914 239.405 54.384C240.684 54.6922 241.888 55.2525 242.948 56.032Z" fill="#00BFA6"/>
<g opacity="0.6">
<path d="M231.544 74.7286C231.656 74.8067 231.752 74.9069 231.824 75.0231C231.896 75.1393 231.944 75.269 231.964 75.4043C231.99 75.5383 231.989 75.6764 231.959 75.8097C231.929 75.943 231.872 76.0687 231.791 76.1788L229.83 78.9392C229.752 79.0516 229.652 79.1468 229.536 79.219C229.419 79.2913 229.29 79.3391 229.154 79.3595C229.02 79.3857 228.882 79.3839 228.749 79.3541C228.616 79.3243 228.49 79.2672 228.38 79.1864L225.677 77.2665C225.565 77.1894 225.47 77.0894 225.399 76.9729C225.328 76.8564 225.282 76.7262 225.265 76.5908C225.239 76.4568 225.241 76.3187 225.27 76.1854C225.3 76.0521 225.357 75.9264 225.438 75.8163L227.424 73.0559C227.585 72.8321 227.827 72.6807 228.098 72.6344C228.37 72.5882 228.649 72.6508 228.874 72.8087L231.544 74.7286ZM242.948 56.032C243.934 56.7227 244.811 57.5557 245.552 58.504C246.275 59.3861 246.833 60.3909 247.2 61.4704C247.542 62.505 247.657 63.601 247.538 64.684C247.398 65.839 246.961 66.9378 246.269 67.8729C245.755 68.629 245.093 69.2736 244.324 69.7681C243.647 70.1924 242.912 70.5145 242.141 70.7239C241.39 70.9202 240.623 71.0525 239.85 71.1195L237.658 71.3172C237.001 71.3698 236.35 71.4828 235.713 71.6551C235.126 71.7884 234.589 72.0855 234.164 72.512C233.973 72.7069 233.73 72.844 233.464 72.9075C233.337 72.9438 233.204 72.9493 233.075 72.9235C232.946 72.8977 232.825 72.8414 232.722 72.7592L230.333 71.0618C230.104 70.8987 229.948 70.6536 229.896 70.3779C229.865 70.2442 229.866 70.1052 229.899 69.9721C229.932 69.8389 229.996 69.7154 230.085 69.6115C230.644 68.8872 231.341 68.282 232.137 67.8317C232.854 67.4404 233.618 67.144 234.411 66.95C235.177 66.7643 235.957 66.6457 236.743 66.5957C237.518 66.5463 238.243 66.4886 238.919 66.4227C239.537 66.3681 240.148 66.2465 240.74 66.0601C241.258 65.8876 241.704 65.5487 242.009 65.096C242.284 64.7138 242.463 64.2708 242.531 63.8045C242.598 63.3382 242.552 62.8626 242.396 62.418C242.006 61.3198 241.261 60.3831 240.278 59.7565C238.499 58.4875 236.557 58.4463 234.453 59.6329C234.241 59.7677 234.006 59.8626 233.761 59.9131C233.632 59.922 233.504 59.9055 233.382 59.8644C233.261 59.8234 233.148 59.7587 233.052 59.6741L230.514 57.8695C230.422 57.8085 230.343 57.7297 230.282 57.6377C230.222 57.5457 230.18 57.4424 230.16 57.3339C230.14 57.2218 230.144 57.1068 230.171 56.9962C230.198 56.8856 230.247 56.7817 230.316 56.6912C230.915 55.924 231.693 55.3156 232.582 54.9196C233.592 54.4621 234.674 54.1833 235.779 54.0956C236.996 53.994 238.22 54.0914 239.405 54.384C240.684 54.6922 241.888 55.2525 242.948 56.032Z" fill="white"/>
</g>
<path d="M170.181 147.669H140.904V76.7391C140.904 70.5785 143.351 64.6702 147.708 60.314C152.064 55.9578 157.972 53.5105 164.133 53.5105H166.835C172.996 53.5105 178.904 55.9578 183.26 60.314C187.617 64.6702 190.064 70.5785 190.064 76.7391V127.827C190.053 133.093 187.953 138.14 184.226 141.86C180.498 145.58 175.447 147.669 170.181 147.669Z" fill="#263238"/>
<path d="M138.053 318.427C137.535 321.366 137.259 324.342 137.229 327.326C137.122 332.731 136.133 334.651 136.001 339.084C135.845 344.152 136.726 346.047 138.778 348.898C140.83 351.749 146.194 354.328 148.518 349.516C150.841 344.704 150.504 341.548 149.77 336.579C149.02 331.438 148.946 328.595 148.485 324.681C148.106 321.228 147.661 318.6 147.661 318.6L138.053 318.427Z" fill="#263238"/>
<path d="M153.396 282.525L135.597 282.204C135.861 294.086 137.748 307.278 138.069 318.46C138.135 320.561 138.02 334.767 138.811 339.06C140.006 345.553 147.702 344.671 148.114 340.79C148.526 336.909 147.62 320.322 147.644 318.608C147.57 311.456 150.94 299.384 152.679 286.546C152.753 285.928 153.313 283.143 153.396 282.525Z" fill="#FFA8A7"/>
<path d="M176.262 309.181C176.262 309.181 175.561 308.802 175.438 309.552C175.265 310.442 175.001 312.279 174.614 313.746C174.103 315.781 173.674 319.135 173.979 320.8C174.284 322.464 178.157 324.59 180.67 325.365C183.768 326.32 186.592 328.001 188.91 330.267C191.382 332.608 196.763 334.816 200.446 334.791C204.772 334.791 207.788 333.349 209.214 331.034C210.639 328.718 207.912 328.438 202.968 325.266L199.136 322.794C191.3 317.677 188.424 314.941 186.224 309.824L176.262 309.181Z" fill="#263238"/>
<path d="M186.29 306.009C186.158 302.334 188.696 271.096 188.696 271.096L171.796 278.801C175.413 300.406 176.188 305.506 176.245 309.041C176.171 309.338 176.141 309.643 176.155 309.948C176.155 314.142 180.909 316.408 184.601 319.21C187.739 321.668 191.083 323.851 194.596 325.736C197.282 327.079 202.737 327.202 203.413 325.48C198.914 322.044 192.371 316.902 188.795 312.98C187.048 311.134 186.422 309.692 186.29 306.009Z" fill="#FFA8A7"/>
<path d="M142.89 166.58C136.397 180.827 136.397 191.852 137.476 210.038C138.432 226.724 140.022 241.432 140.022 241.432C139.775 244.39 135.663 250.166 135.128 263.252C134.633 275.48 135.952 291.029 135.952 291.029C135.952 291.029 145.189 296.146 152.02 290.979C152.02 290.979 158.612 259.511 160.54 244.201C162.188 230.844 165.154 213.779 165.154 213.779L171.392 244.11C170.046 248.413 169.07 252.824 168.475 257.294C167.602 266.3 172.644 283.983 172.644 283.983C172.644 283.983 182.186 286.826 188.012 281.66C188.012 281.66 190.187 252.91 191.003 242.066C192.091 227.539 189.8 188.218 188.012 167.396L142.89 166.58Z" fill="#455A64"/>
<path d="M165.171 213.754L167.733 190.896C167.733 190.896 179.22 189.363 184.428 184.469C182.937 186.801 180.952 188.776 178.612 190.254C176.272 191.732 173.635 192.677 170.889 193.022L167.181 214.289L171.392 244.11L165.171 213.754Z" fill="#263238"/>
<path d="M211.686 160.96C212.16 156.789 212.369 152.592 212.312 148.394C212.056 144.769 211.405 144.175 206.338 137.756C199.499 129.08 193.656 121.276 187.476 113.522C183.06 107.985 178.412 107.136 173.897 107.384C170.733 107.557 176.913 122.776 180.019 131.782L197.76 150.883C198.31 151.636 198.562 152.566 198.469 153.495L197.397 169.744L202.712 176.863C202.712 176.863 210.763 169.925 211.686 160.96Z" fill="#FFA8A7"/>
<path d="M156.791 107.878C153.355 108.117 147.109 108.702 147.109 108.702C143.508 110.713 142.593 112.369 141.926 117.148C141.637 119.192 143.302 124.622 144.727 132.343L147.43 146.656L147.133 153.758C145.733 158.093 142.56 163.473 139.759 171.409C153.519 179.088 165.055 179.377 175.52 178.001C183.497 176.971 187.724 175.042 189.133 173.131C188.836 165.294 188.309 160.449 188.144 152.259C188.086 148.823 188.292 145.345 188.432 141.39C193.78 136.99 193.846 129.673 190.904 124.91C184.123 113.926 177.523 107.013 173.155 107.367L156.791 107.878Z" fill="#00BFA6"/>
<path opacity="0.6" d="M156.791 107.878C153.355 108.117 147.109 108.702 147.109 108.702C143.508 110.713 142.593 112.369 141.926 117.148C141.637 119.192 143.302 124.622 144.727 132.343L147.43 146.656L147.133 153.758C145.733 158.093 142.56 163.473 139.759 171.409C153.519 179.088 165.055 179.377 175.52 178.001C183.497 176.971 187.724 175.042 189.133 173.131C188.836 165.294 188.309 160.449 188.144 152.259C188.086 148.823 188.292 145.345 188.432 141.39C193.78 136.99 193.846 129.673 190.904 124.91C184.123 113.926 177.523 107.013 173.155 107.367L156.791 107.878Z" fill="white"/>
<path opacity="0.1" d="M177.778 141.497C177.778 141.497 171.499 146.375 164.322 143.829C162.307 143.194 160.489 142.05 159.046 140.506C157.602 138.963 156.581 137.074 156.082 135.021C156.082 135.021 155.324 143.219 164.363 146.013C173.122 148.707 177.778 141.497 177.778 141.497Z" fill="black"/>
<path d="M186.298 85.3746C186.026 97.2732 182.178 100.207 180.234 101.031C178.289 101.855 174.564 101.36 170.939 100.759V107.944C170.939 107.944 175.125 112.328 174.812 115.599C174.499 118.87 168.22 119.241 163.539 116.036C160.957 114.262 158.621 112.153 156.593 109.765C156.204 109.304 155.99 108.72 155.992 108.117V91.3074C155.992 91.3074 154.006 93.4086 150.495 91.0026C149.738 90.5192 149.089 89.8835 148.591 89.136C148.093 88.3884 147.755 87.5453 147.6 86.6603C147.445 85.7752 147.476 84.8676 147.691 83.9952C147.905 83.1227 148.299 82.3045 148.847 81.5925C150.38 79.7879 154.269 79.6643 156.132 82.4165C157.186 84.4682 157.326 86.5365 158.505 85.7125C161.636 83.4547 159.955 78.2965 163.737 75.8245C164.978 75.1767 166.267 74.6257 167.593 74.1765C174.342 71.8446 180.192 69.8834 181.601 65.269C184.255 66.7852 186.628 71.3419 186.298 85.3746Z" fill="#FFA8A7"/>
<path d="M172.991 96.0042C173.855 96.0042 174.556 95.3033 174.556 94.4386C174.556 93.574 173.855 92.873 172.991 92.873C172.126 92.873 171.425 93.574 171.425 94.4386C171.425 95.3033 172.126 96.0042 172.991 96.0042Z" fill="#B16668"/>
<path d="M171.952 83.57C171.952 83.8923 171.857 84.2075 171.679 84.4764C171.502 84.7454 171.249 84.9563 170.953 85.0831C170.656 85.2099 170.329 85.247 170.012 85.1898C169.695 85.1326 169.401 84.9836 169.168 84.7613C168.934 84.539 168.771 84.2531 168.699 83.939C168.626 83.625 168.647 83.2965 168.759 82.9943C168.872 82.6921 169.07 82.4295 169.33 82.2389C169.59 82.0483 169.9 81.9381 170.222 81.922C170.445 81.9108 170.668 81.9452 170.878 82.023C171.088 82.1008 171.279 82.2204 171.441 82.3745C171.603 82.5287 171.732 82.7142 171.82 82.9197C171.907 83.1252 171.953 83.3465 171.952 83.57Z" fill="#263238"/>
<path d="M184.436 83.735C184.453 83.9366 184.429 84.1395 184.367 84.332C184.305 84.5244 184.205 84.7025 184.073 84.8559C183.941 85.0093 183.78 85.1349 183.599 85.2254C183.418 85.3159 183.221 85.3694 183.019 85.383C182.815 85.4018 182.61 85.377 182.416 85.3104C182.223 85.2438 182.046 85.1368 181.897 84.9965C181.748 84.8562 181.631 84.6859 181.553 84.4968C181.475 84.3077 181.438 84.1042 181.445 83.8997C181.424 83.6967 181.444 83.4914 181.505 83.2964C181.566 83.1015 181.666 82.9211 181.799 82.7662C181.932 82.6113 182.095 82.4853 182.279 82.3957C182.462 82.3062 182.662 82.2551 182.866 82.2455C183.07 82.236 183.274 82.2682 183.465 82.3402C183.656 82.4122 183.83 82.5224 183.977 82.6642C184.124 82.806 184.241 82.9762 184.32 83.1646C184.399 83.353 184.438 83.5555 184.436 83.7597V83.735Z" fill="#263238"/>
<path d="M169.835 87.8055C168.413 87.8055 167.05 87.2414 166.045 86.2372C165.039 85.233 164.473 83.8707 164.47 82.4495C164.47 78.8074 168.228 78.8074 169.835 78.8074C171.441 78.8074 175.191 78.8074 175.191 82.4495C175.189 83.8693 174.624 85.2303 173.62 86.2343C172.616 87.2383 171.255 87.8033 169.835 87.8055ZM169.835 79.6479C166.539 79.6479 165.319 80.4719 165.319 82.4495C165.319 83.6514 165.797 84.8041 166.647 85.6541C167.496 86.504 168.649 86.9815 169.851 86.9815C171.053 86.9815 172.206 86.504 173.056 85.6541C173.906 84.8041 174.383 83.6514 174.383 82.4495C174.35 80.4307 173.081 79.6479 169.835 79.6479Z" fill="#455A64"/>
<path d="M183.439 87.8055C182.018 87.8055 180.655 87.2414 179.649 86.2372C178.643 85.233 178.077 83.8707 178.075 82.4495C178.075 78.8074 181.832 78.8074 183.439 78.8074C185.046 78.8074 188.795 78.8074 188.795 82.4495C188.793 83.8693 188.228 85.2303 187.224 86.2343C186.22 87.2383 184.859 87.8033 183.439 87.8055ZM183.439 79.6479C180.192 79.6479 178.923 80.4719 178.923 82.4495C178.923 83.6514 179.401 84.8041 180.251 85.6541C181.101 86.504 182.253 86.9815 183.455 86.9815C184.657 86.9815 185.81 86.504 186.66 85.6541C187.51 84.8041 187.987 83.6514 187.987 82.4495C187.954 80.4307 186.686 79.6479 183.439 79.6479Z" fill="#455A64"/>
<path d="M176.023 80.719L176.287 90.7306L181.552 89.0991L176.023 80.719Z" fill="#F28F8F"/>
<path d="M170.931 100.783C167.107 100.281 159.238 98.0229 158.01 94.9082C158.504 96.4823 159.468 97.868 160.771 98.8799C163.119 100.899 170.931 103.165 170.931 103.165V100.783Z" fill="#F28F8F"/>
<path d="M171.12 75.8573L167.626 77.9915C167.351 77.5118 167.271 76.9446 167.403 76.4075C167.535 75.8705 167.869 75.4049 168.335 75.1075C168.565 74.9676 168.822 74.8759 169.089 74.838C169.356 74.8 169.628 74.8166 169.888 74.8867C170.148 74.9568 170.392 75.0789 170.603 75.2458C170.815 75.4126 170.991 75.6206 171.12 75.8573Z" fill="#263238"/>
<path d="M185.334 78.2305L181.445 76.8709C181.52 76.6131 181.647 76.3735 181.819 76.1667C181.99 75.9599 182.202 75.7903 182.441 75.6684C182.68 75.5464 182.942 75.4747 183.21 75.4576C183.478 75.4405 183.746 75.4784 183.999 75.5689C184.521 75.7564 184.95 76.1373 185.199 76.6327C185.447 77.1282 185.496 77.7003 185.334 78.2305Z" fill="#263238"/>
<path d="M174.77 82.8779C174.715 82.8779 174.659 82.8668 174.608 82.8452C174.556 82.8235 174.509 82.7918 174.47 82.7519C174.431 82.712 174.4 82.6647 174.38 82.6128C174.359 82.5608 174.349 82.5053 174.35 82.4494C174.35 81.7655 175.702 81.3206 176.921 81.3206C178.141 81.3206 178.923 81.7655 178.923 82.4494C178.898 82.539 178.844 82.6177 178.769 82.6738C178.695 82.7299 178.604 82.7602 178.511 82.7602C178.418 82.7602 178.328 82.7299 178.253 82.6738C178.179 82.6177 178.125 82.539 178.099 82.4494C178.099 82.367 177.679 82.161 176.946 82.161C176.355 82.1485 175.768 82.2492 175.215 82.4577C175.215 82.515 175.204 82.5717 175.181 82.6244C175.159 82.6771 175.125 82.7246 175.084 82.7639C175.042 82.8033 174.993 82.8337 174.939 82.8533C174.885 82.8729 174.828 82.8813 174.77 82.8779Z" fill="#455A64"/>
<path d="M164.907 82.5153H164.858L155.439 81.6913C154.999 81.2551 154.475 80.9131 153.899 80.686L164.957 81.7078C165.068 81.7222 165.168 81.7794 165.238 81.8672C165.307 81.9549 165.339 82.0663 165.327 82.1775C165.308 82.2741 165.255 82.3609 165.179 82.4227C165.102 82.4844 165.006 82.5172 164.907 82.5153Z" fill="#455A64"/>
<path d="M126.237 92.3374C129.319 88.2174 131.42 85.1109 134.23 81.6254C135.828 79.6231 136.85 78.1893 138.35 76.1376C139.404 74.7203 139.998 73.5255 141.201 73.0888C142.5 72.5562 143.672 71.7528 144.637 70.7321C145.23 70.0759 145.78 69.3823 146.285 68.6556C148.051 66.2784 150.149 64.1668 152.514 62.385C154.986 60.5228 157.747 59.089 160.293 57.3174C161.809 56.2544 163.432 54.4911 161.586 52.8431C161.02 52.3663 160.343 52.0404 159.617 51.8955C155.126 50.9232 151.22 52.464 146.829 53.5847C144.921 54.0608 143.055 54.6919 141.25 55.4716C140.362 55.8228 139.53 56.3001 138.778 56.8889C137.727 57.9484 136.866 59.1803 136.232 60.531C134.312 63.9588 130.192 67.0241 127.308 69.7351C123.938 72.9075 120.922 75.8162 117.074 79.31C113.613 82.4659 110.226 85.3664 107.054 88.8107C104.426 91.6535 105.406 93.8783 105.752 94.6528C107.895 99.053 110.292 100.635 113.168 103.363C118.112 108.084 135.21 121.672 140.871 126.163C142.087 127.118 143.043 128.365 143.648 129.788L144.736 132.301C151.196 133.488 155.505 123.789 150.158 112.113C149.272 110.225 147.919 108.595 146.227 107.375C139.47 102.456 126.237 92.3374 126.237 92.3374Z" fill="#FFA8A7"/>
<path d="M126.237 92.3374C124.181 94.8669 121.44 96.7518 118.343 97.7676C118.343 97.7676 122.463 98.8223 128.107 93.7547L126.237 92.3374Z" fill="#F28F8F"/>
<path d="M210.005 152.366L208.95 151.459C208.792 151.356 208.613 151.29 208.425 151.269C208.237 151.247 208.048 151.27 207.871 151.336L196.425 154.451C195.849 154.643 195.32 154.957 194.877 155.373C194.433 155.788 194.084 156.294 193.854 156.857L185.614 180.613C185.515 180.806 185.476 181.025 185.503 181.241C185.529 181.457 185.62 181.66 185.763 181.824L186.85 182.763C187.009 182.872 187.191 182.941 187.382 182.964C187.573 182.987 187.767 182.963 187.946 182.895L199.408 179.78C199.985 179.588 200.513 179.274 200.957 178.858C201.4 178.443 201.749 177.937 201.979 177.374C203.627 172.702 208.571 158.29 210.219 153.618C210.417 153.033 210.318 152.588 210.005 152.366Z" fill="#455A64"/>
<path d="M186.694 181.527L194.934 157.771C195.163 157.209 195.511 156.704 195.955 156.289C196.399 155.875 196.928 155.563 197.505 155.374L208.942 152.259C210.005 151.97 210.59 152.58 210.211 153.618C208.563 158.29 203.619 172.702 201.971 177.374C201.741 177.937 201.392 178.443 200.948 178.858C200.505 179.274 199.976 179.588 199.4 179.78L187.963 182.928C186.908 183.175 186.339 182.566 186.694 181.527Z" fill="#00BFA6"/>
<path d="M196.26 156.033C195.665 156.483 195.204 157.087 194.925 157.779L186.685 181.527C186.591 181.716 186.552 181.927 186.572 182.137C186.593 182.347 186.672 182.547 186.801 182.714L185.779 181.84C185.633 181.678 185.539 181.476 185.511 181.259C185.483 181.043 185.522 180.823 185.623 180.629L193.863 156.873C194.123 156.227 194.546 155.66 195.09 155.225L196.26 156.033Z" fill="#37474F"/>
<path d="M206.865 163.193C206.041 165.607 203.182 167.222 198.452 168.343C193.722 169.464 191.11 174.482 191.86 176.006C192.61 177.531 200.257 178.956 203.314 178.519C206.371 178.083 209.436 173.666 210.367 172.298C211.298 170.93 212.369 161.389 211.389 160.078C210.408 158.768 208.34 158.974 208.34 158.974L206.865 163.193Z" fill="#F28F8F"/>
</svg>
