<svg width="13" height="13" viewBox="0 0 13 13" fill="none" xmlns="http://www.w3.org/2000/svg">
<path d="M8.125 5.6875C8.125 6.11848 7.9538 6.5318 7.64905 6.83655C7.3443 7.1413 6.93098 7.3125 6.5 7.3125C6.06902 7.3125 5.6557 7.1413 5.35095 6.83655C5.0462 6.5318 4.875 6.11848 4.875 5.6875C4.875 5.25652 5.0462 4.8432 5.35095 4.53845C5.6557 4.2337 6.06902 4.0625 6.5 4.0625C6.93098 4.0625 7.3443 4.2337 7.64905 4.53845C7.9538 4.8432 8.125 5.25652 8.125 5.6875Z" stroke="#00BFA6" stroke-width="1.14706" stroke-linecap="round" stroke-linejoin="round"/>
<path d="M10.5625 5.6875C10.5625 9.55608 6.5 11.7812 6.5 11.7812C6.5 11.7812 2.4375 9.55608 2.4375 5.6875C2.4375 4.61006 2.86551 3.57675 3.62738 2.81488C4.38925 2.05301 5.42256 1.625 6.5 1.625C7.57744 1.625 8.61075 2.05301 9.37262 2.81488C10.1345 3.57675 10.5625 4.61006 10.5625 5.6875Z" stroke="#00BFA6" stroke-width="1.14706" stroke-linecap="round" stroke-linejoin="round"/>
</svg>
