<svg width="13" height="13" viewBox="0 0 13 13" fill="none" xmlns="http://www.w3.org/2000/svg">
<path d="M3.65625 1.625V2.84375M9.34375 1.625V2.84375M1.625 10.1563V4.0625C1.625 3.73927 1.7534 3.42927 1.98196 3.20071C2.21052 2.97215 2.52052 2.84375 2.84375 2.84375H10.1563C10.4795 2.84375 10.7895 2.97215 11.018 3.20071C11.2466 3.42927 11.375 3.73927 11.375 4.0625V10.1563M1.625 10.1563C1.625 10.4795 1.7534 10.7895 1.98196 11.018C2.21052 11.2466 2.52052 11.375 2.84375 11.375H10.1563C10.4795 11.375 10.7895 11.2466 11.018 11.018C11.2466 10.7895 11.375 10.4795 11.375 10.1563M1.625 10.1563V6.09375C1.625 5.77052 1.7534 5.46052 1.98196 5.23196C2.21052 5.0034 2.52052 4.875 2.84375 4.875H10.1563C10.4795 4.875 10.7895 5.0034 11.018 5.23196C11.2466 5.46052 11.375 5.77052 11.375 6.09375V10.1563M6.5 6.90625H6.50433V6.91058H6.5V6.90625ZM6.5 8.125H6.50433V8.12933H6.5V8.125ZM6.5 9.34375H6.50433V9.34808H6.5V9.34375ZM5.28125 8.125H5.28558V8.12933H5.28125V8.125ZM5.28125 9.34375H5.28558V9.34808H5.28125V9.34375ZM4.0625 8.125H4.06683V8.12933H4.0625V8.125ZM4.0625 9.34375H4.06683V9.34808H4.0625V9.34375ZM7.71875 6.90625H7.72308V6.91058H7.71875V6.90625ZM7.71875 8.125H7.72308V8.12933H7.71875V8.125ZM7.71875 9.34375H7.72308V9.34808H7.71875V9.34375ZM8.9375 6.90625H8.94183V6.91058H8.9375V6.90625ZM8.9375 8.125H8.94183V8.12933H8.9375V8.125Z" stroke="#00BFA6" stroke-linecap="round" stroke-linejoin="round"/>
</svg>
