<svg width="21" height="21" viewBox="0 0 21 21" fill="none" xmlns="http://www.w3.org/2000/svg">
<circle cx="10.5" cy="10.5" r="10.5" fill="#FFD54F"/>
<path d="M12.8026 9.31579V7.24342C12.8026 6.91365 12.6716 6.59738 12.4384 6.36419C12.2053 6.131 11.889 6 11.5592 6H8.24342C7.91365 6 7.59738 6.131 7.36419 6.36419C7.131 6.59738 7 6.91365 7 7.24342V14.7039C7 15.0337 7.131 15.35 7.36419 15.5832C7.59738 15.8164 7.91365 15.9474 8.24342 15.9474H11.5592C11.889 15.9474 12.2053 15.8164 12.4384 15.5832C12.6716 15.35 12.8026 15.0337 12.8026 14.7039V12.6316M10.7303 9.31579L9.07237 10.9737M9.07237 10.9737L10.7303 12.6316M9.07237 10.9737H16.1184" stroke="#00BFA6" stroke-width="1.10526" stroke-linecap="round" stroke-linejoin="round"/>
</svg>
