<svg width="412" height="412" viewBox="0 0 412 412" fill="none" xmlns="http://www.w3.org/2000/svg">
<path d="M412 315.098H0V315.304H412V315.098Z" fill="#EBEBEB"/>
<path d="M370.718 328.355H343.427V328.561H370.718V328.355Z" fill="#EBEBEB"/>
<path d="M272.925 330.597H265.765V330.803H272.925V330.597Z" fill="#EBEBEB"/>
<path d="M342.603 320.709H326.79V320.915H342.603V320.709Z" fill="#EBEBEB"/>
<path d="M78.8156 322.093H43.2271V322.299H78.8156V322.093Z" fill="#EBEBEB"/>
<path d="M91.3734 322.093H86.1575V322.299H91.3734V322.093Z" fill="#EBEBEB"/>
<path d="M185.524 325.57H108.331V325.776H185.524V325.57Z" fill="#EBEBEB"/>
<path d="M195.288 278.347H36.1818C34.9354 278.345 33.7407 277.848 32.8601 276.966C31.9796 276.084 31.485 274.888 31.485 273.642V49.9837C31.4958 48.7444 31.9952 47.5594 32.8746 46.6862C33.754 45.813 34.9425 45.3219 36.1818 45.3198H195.288C196.536 45.3198 197.733 45.8155 198.615 46.6979C199.497 47.5803 199.993 48.777 199.993 50.0249V273.642C199.993 274.89 199.497 276.087 198.615 276.969C197.733 277.851 196.536 278.347 195.288 278.347ZM36.1818 45.4846C34.99 45.4868 33.8478 45.9618 33.0058 46.8053C32.1639 47.6488 31.691 48.7919 31.691 49.9837V273.642C31.691 274.834 32.1639 275.977 33.0058 276.82C33.8478 277.664 34.99 278.139 36.1818 278.141H195.288C196.481 278.139 197.624 277.664 198.467 276.821C199.31 275.978 199.785 274.835 199.787 273.642V49.9837C199.785 48.7911 199.31 47.648 198.467 46.8048C197.624 45.9615 196.481 45.4868 195.288 45.4846H36.1818Z" fill="#EBEBEB"/>
<path d="M373.527 278.347H214.413C213.166 278.345 211.97 277.848 211.088 276.967C210.207 276.085 209.71 274.889 209.708 273.642V49.9837C209.721 48.7436 210.222 47.5587 211.103 46.6857C211.984 45.8127 213.173 45.3219 214.413 45.3198H373.527C374.765 45.3241 375.952 45.8161 376.829 46.6891C377.707 47.5621 378.205 48.7458 378.216 49.9837V273.642C378.216 274.887 377.723 276.081 376.844 276.963C375.965 277.845 374.772 278.343 373.527 278.347ZM214.413 45.4846C213.22 45.4868 212.077 45.9615 211.234 46.8048C210.391 47.648 209.916 48.7911 209.914 49.9837V273.642C209.916 274.835 210.391 275.978 211.234 276.821C212.077 277.664 213.22 278.139 214.413 278.141H373.527C374.72 278.139 375.863 277.664 376.706 276.821C377.55 275.978 378.024 274.835 378.026 273.642V49.9837C378.024 48.7911 377.55 47.648 376.706 46.8048C375.863 45.9615 374.72 45.4868 373.527 45.4846H214.413Z" fill="#EBEBEB"/>
<path d="M183.497 151.394H54.5076V314.727H183.497V151.394Z" fill="#F0F0F0"/>
<path d="M178.932 157.351H59.0643V192.28H178.932V157.351Z" fill="#E0E0E0"/>
<path d="M65.8706 163.003H59.0643V192.272H65.8706V163.003Z" fill="#EBEBEB"/>
<path d="M98.7976 163.003H91.9913V192.272H98.7976V163.003Z" fill="#EBEBEB"/>
<path d="M136.174 162.26L129.467 163.417L134.439 192.26L141.146 191.103L136.174 162.26Z" fill="#EBEBEB"/>
<path d="M74.3083 166.86H67.5021V192.272H74.3083V166.86Z" fill="#EBEBEB"/>
<path d="M89.9561 166.86H83.1499V192.272H89.9561V166.86Z" fill="#EBEBEB"/>
<path d="M129.459 166.86H122.652V192.272H129.459V166.86Z" fill="#EBEBEB"/>
<path d="M107.739 165.984L101.095 167.46L106.608 192.267L113.252 190.791L107.739 165.984Z" fill="#EBEBEB"/>
<path d="M80.1999 161.545H76.7968V192.272H80.1999V161.545Z" fill="#EBEBEB"/>
<path d="M120.699 161.545H117.296V192.272H120.699V161.545Z" fill="#EBEBEB"/>
<path d="M59.0644 232.73L178.932 232.73V197.801H59.0644V232.73Z" fill="#E0E0E0"/>
<path d="M172.125 232.73H178.932V203.462H172.125V232.73Z" fill="#EBEBEB"/>
<path d="M139.198 232.73H146.005V203.462H139.198V232.73Z" fill="#EBEBEB"/>
<path d="M96.8511 231.578L103.558 232.734L108.53 203.891L101.823 202.735L96.8511 231.578Z" fill="#EBEBEB"/>
<path d="M163.679 232.73H170.486V207.318H163.679V232.73Z" fill="#EBEBEB"/>
<path d="M148.04 232.73H154.846V207.318H148.04V232.73Z" fill="#EBEBEB"/>
<path d="M108.529 232.73H115.335V207.318H108.529V232.73Z" fill="#EBEBEB"/>
<path d="M124.753 231.248L131.397 232.725L136.91 207.918L130.266 206.441L124.753 231.248Z" fill="#EBEBEB"/>
<path d="M157.796 232.73H161.199V202.004H157.796V232.73Z" fill="#EBEBEB"/>
<path d="M117.296 232.73H120.699V202.004H117.296V232.73Z" fill="#EBEBEB"/>
<path d="M65.8706 203.462H59.0643V232.73H65.8706V203.462Z" fill="#EBEBEB"/>
<path d="M74.3083 207.318H67.5021V232.731H74.3083V207.318Z" fill="#EBEBEB"/>
<path d="M89.9561 207.318H83.1499V232.731H89.9561V207.318Z" fill="#EBEBEB"/>
<path d="M80.1999 202.003H76.7968V232.73H80.1999V202.003Z" fill="#EBEBEB"/>
<path d="M178.932 238.259H59.0643V273.189H178.932V238.259Z" fill="#E0E0E0"/>
<path d="M134.666 243.912H127.86V273.181H134.666V243.912Z" fill="#EBEBEB"/>
<path d="M172.05 243.175L165.342 244.331L170.314 273.174L177.021 272.018L172.05 243.175Z" fill="#EBEBEB"/>
<path d="M110.177 247.777H103.371V273.189H110.177V247.777Z" fill="#EBEBEB"/>
<path d="M125.833 247.777H119.027V273.189H125.833V247.777Z" fill="#EBEBEB"/>
<path d="M165.336 247.777H158.529V273.189H165.336V247.777Z" fill="#EBEBEB"/>
<path d="M143.622 246.896L136.978 248.373L142.491 273.18L149.136 271.703L143.622 246.896Z" fill="#EBEBEB"/>
<path d="M116.069 242.462H112.666V273.189H116.069V242.462Z" fill="#EBEBEB"/>
<path d="M156.568 242.462H153.165V273.189H156.568V242.462Z" fill="#EBEBEB"/>
<path d="M93.7133 243.182L87.006 244.338L91.9777 273.182L98.685 272.025L93.7133 243.182Z" fill="#EBEBEB"/>
<path d="M86.9979 247.777H80.1917V273.189H86.9979V247.777Z" fill="#EBEBEB"/>
<path d="M65.28 246.901L58.6359 248.378L64.1491 273.185L70.7932 271.708L65.28 246.901Z" fill="#EBEBEB"/>
<path d="M78.2305 242.462H74.8274V273.189H78.2305V242.462Z" fill="#EBEBEB"/>
<path d="M251.551 217.231H324.244C326.122 217.231 327.981 217.601 329.715 218.321C331.449 219.041 333.024 220.096 334.35 221.426C335.676 222.755 336.726 224.333 337.441 226.07C338.156 227.806 338.521 229.666 338.516 231.544V288.301H237.312V231.544C237.303 227.758 238.798 224.124 241.468 221.44C244.138 218.756 247.765 217.242 251.551 217.231Z" fill="#E6E6E6"/>
<path d="M215.789 259.304H228.792C229.91 259.3 231.018 259.517 232.052 259.942C233.086 260.367 234.026 260.992 234.817 261.781C235.609 262.571 236.237 263.509 236.665 264.542C237.093 265.574 237.313 266.682 237.312 267.8V314.768H207.302V267.8C207.301 266.684 207.52 265.58 207.946 264.549C208.372 263.519 208.997 262.582 209.785 261.793C210.573 261.004 211.509 260.378 212.539 259.951C213.57 259.524 214.674 259.304 215.789 259.304Z" fill="#E0E0E0"/>
<path d="M215.789 259.304H216.061C217.176 259.304 218.281 259.524 219.311 259.951C220.341 260.378 221.277 261.004 222.065 261.793C222.853 262.582 223.478 263.519 223.905 264.549C224.331 265.58 224.549 266.684 224.548 267.8V314.768H207.302V267.8C207.301 266.684 207.52 265.58 207.946 264.549C208.372 263.519 208.997 262.582 209.785 261.793C210.573 261.004 211.509 260.378 212.539 259.951C213.57 259.524 214.674 259.304 215.789 259.304Z" fill="#EBEBEB"/>
<path d="M327.927 293.163H228.174V314.727H327.927V293.163Z" fill="#E6E6E6"/>
<path d="M324.236 273.444H228.034C223.269 273.444 219.406 277.307 219.406 282.072V287.436C219.406 292.201 223.269 296.063 228.034 296.063H324.236C329 296.063 332.863 292.201 332.863 287.436V282.072C332.863 277.307 329 273.444 324.236 273.444Z" fill="#F5F5F5"/>
<path d="M324.071 273.444H312.148C307.383 273.444 303.52 277.307 303.52 282.072V287.436C303.52 292.201 307.383 296.063 312.148 296.063H324.071C328.836 296.063 332.698 292.201 332.698 287.436V282.072C332.698 277.307 328.836 273.444 324.071 273.444Z" fill="#E0E0E0"/>
<path d="M325.365 259.304H338.376C339.49 259.304 340.594 259.524 341.624 259.951C342.654 260.378 343.589 261.004 344.377 261.793C345.164 262.583 345.789 263.519 346.214 264.55C346.639 265.58 346.857 266.685 346.855 267.8V314.768H316.886V267.8C316.883 266.685 317.101 265.58 317.526 264.55C317.951 263.519 318.576 262.583 319.363 261.793C320.151 261.004 321.086 260.378 322.116 259.951C323.146 259.524 324.25 259.304 325.365 259.304Z" fill="#E0E0E0"/>
<path d="M325.365 259.304H325.645C326.76 259.304 327.864 259.524 328.893 259.951C329.923 260.378 330.859 261.004 331.646 261.793C332.434 262.583 333.058 263.519 333.483 264.55C333.908 265.58 334.126 266.685 334.124 267.8V314.768H316.886V267.8C316.883 266.685 317.101 265.58 317.526 264.55C317.951 263.519 318.576 262.583 319.363 261.793C320.151 261.004 321.086 260.378 322.116 259.951C323.146 259.524 324.25 259.304 325.365 259.304Z" fill="#F0F0F0"/>
<path d="M123.811 131.538C134.389 129.821 141.573 119.853 139.856 109.274C138.139 98.6957 128.171 91.512 117.592 93.2292C107.013 94.9463 99.8298 104.914 101.547 115.493C103.264 126.072 113.232 133.255 123.811 131.538Z" fill="#E0E0E0"/>
<path d="M123.346 128.675C132.343 127.214 138.453 118.736 136.993 109.739C135.532 100.741 127.055 94.6313 118.057 96.0918C109.059 97.5524 102.949 106.03 104.41 115.028C105.87 124.025 114.348 130.135 123.346 128.675Z" fill="#F0F0F0"/>
<path d="M119.917 123.715V112.179L112.278 116.505" fill="#F0F0F0"/>
<path d="M119.917 124.539C119.698 124.539 119.489 124.452 119.334 124.298C119.179 124.143 119.093 123.934 119.093 123.715V113.588L112.682 117.222C112.492 117.329 112.267 117.356 112.057 117.297C111.847 117.238 111.669 117.099 111.561 116.909C111.454 116.72 111.426 116.496 111.483 116.286C111.54 116.076 111.678 115.897 111.866 115.788L119.513 111.462C119.638 111.392 119.78 111.355 119.923 111.356C120.067 111.358 120.208 111.396 120.332 111.469C120.456 111.541 120.559 111.645 120.631 111.77C120.703 111.894 120.74 112.035 120.741 112.179V123.715C120.741 123.934 120.654 124.143 120.499 124.298C120.345 124.452 120.135 124.539 119.917 124.539Z" fill="#E0E0E0"/>
<path d="M353.175 87.9043H228.957V198.131H353.175V87.9043Z" fill="#E6E6E6"/>
<path d="M349.903 90.9282H232.063V195.172H349.903V90.9282Z" fill="#F0F0F0"/>
<path d="M259.717 90.9282L232.063 194.942V146.07L246.664 90.9282H259.717Z" fill="white"/>
<path d="M269.514 90.9282L241.613 195.172H237.164L265.064 90.9282H269.514Z" fill="white"/>
<path d="M349.903 156.708V173.361L344.259 195.172H339.809L349.903 156.708Z" fill="white"/>
<path d="M273.164 89.0576H271.178V197.504H273.164V89.0576Z" fill="#E6E6E6"/>
<path d="M311.637 89.0576H309.651V197.504H311.637V89.0576Z" fill="#E6E6E6"/>
<path d="M206 352.31C294.236 352.31 365.765 348.133 365.765 342.982C365.765 337.83 294.236 333.654 206 333.654C117.764 333.654 46.2346 337.83 46.2346 342.982C46.2346 348.133 117.764 352.31 206 352.31Z" fill="#F5F5F5"/>
<path d="M331.166 322.374C331.166 322.374 335.08 313.837 330.605 305.416C326.131 296.994 324.837 295.017 327.688 293.286C330.539 291.556 331.85 300.027 331.85 300.027C333.259 296.202 333.404 292.025 332.262 288.112C330.284 282.022 329.04 272.101 331.742 271.038C334.445 269.975 332.262 283.398 334.618 287.996C335.813 284.778 336.586 281.418 336.917 278.001C337.238 273.107 336.736 265.295 338.87 263.293C341.004 261.291 342.38 262.675 340.279 273.469C339.016 279.922 338.319 286.473 338.194 293.048C338.194 293.048 342.833 278.883 345.956 278.471C349.079 278.059 349.071 282.64 346.401 286.62C343.732 290.6 338.582 297.728 337.741 301.395C337.741 301.395 342.842 290.732 347.423 293.979C352.005 297.225 343.435 303.677 339.612 306.009C335.788 308.341 333.135 322.909 333.135 322.909L331.166 322.374Z" fill="#00BFA6"/>
<path opacity="0.2" d="M331.166 322.374C331.166 322.374 335.08 313.837 330.605 305.416C326.131 296.994 324.837 295.017 327.688 293.286C330.539 291.556 331.85 300.027 331.85 300.027C333.259 296.202 333.404 292.025 332.262 288.112C330.284 282.022 329.04 272.101 331.742 271.038C334.445 269.975 332.262 283.398 334.618 287.996C335.813 284.778 336.586 281.418 336.917 278.001C337.238 273.107 336.736 265.295 338.87 263.293C341.004 261.291 342.38 262.675 340.279 273.469C339.016 279.922 338.319 286.473 338.194 293.048C338.194 293.048 342.833 278.883 345.956 278.471C349.079 278.059 349.071 282.64 346.401 286.62C343.732 290.6 338.582 297.728 337.741 301.395C337.741 301.395 342.842 290.732 347.423 293.979C352.005 297.225 343.435 303.677 339.612 306.009C335.788 308.341 333.135 322.909 333.135 322.909L331.166 322.374Z" fill="black"/>
<path d="M334.255 325.876C334.255 325.876 330.44 317.281 335.014 308.926C339.587 300.57 340.905 298.609 338.079 296.846C335.253 295.083 333.835 303.52 333.835 303.52C332.47 299.681 332.374 295.504 333.563 291.605C335.615 285.541 336.983 275.636 334.288 274.532C331.594 273.428 333.621 286.892 331.215 291.449C330.057 288.214 329.323 284.844 329.031 281.421C328.768 276.526 329.369 268.723 327.251 266.688C325.134 264.652 323.749 266.02 325.727 276.848C326.911 283.313 327.529 289.869 327.573 296.442C327.573 296.442 323.099 282.212 319.992 281.759C316.886 281.305 316.828 285.879 319.448 289.9C322.069 293.921 327.128 301.123 327.952 304.798C327.952 304.798 323.008 294.086 318.361 297.266C313.713 300.447 322.233 307.022 326.024 309.412C329.814 311.802 332.303 326.411 332.303 326.411L334.255 325.876Z" fill="#00BFA6"/>
<path d="M316.671 319.745H348.156L345.61 342.282H319.218L316.671 319.745Z" fill="#263238"/>
<path d="M199.902 338.664V341.622C199.902 341.71 199.885 341.796 199.852 341.877C199.818 341.958 199.769 342.032 199.707 342.094C199.645 342.156 199.571 342.205 199.49 342.239C199.409 342.272 199.323 342.289 199.235 342.289H115.665C114.952 342.289 114.25 342.115 113.621 341.781C112.991 341.446 112.453 340.963 112.054 340.372C111.654 339.782 111.406 339.103 111.33 338.394C111.254 337.685 111.354 336.969 111.619 336.307L138.102 270.717L180.901 271.005L179.443 279.517L169.999 334.602C169.929 335.019 169.95 335.447 170.062 335.856C170.173 336.264 170.372 336.643 170.645 336.967C170.918 337.291 171.258 337.552 171.642 337.731C172.025 337.91 172.444 338.003 172.867 338.005H199.235C199.322 338.004 199.409 338.02 199.49 338.052C199.571 338.085 199.644 338.133 199.706 338.195C199.769 338.256 199.818 338.329 199.851 338.41C199.885 338.49 199.902 338.577 199.902 338.664Z" fill="#263238"/>
<path opacity="0.5" d="M199.902 338.664V341.622C199.902 341.71 199.885 341.796 199.852 341.877C199.818 341.958 199.769 342.032 199.707 342.094C199.645 342.156 199.571 342.205 199.49 342.239C199.409 342.272 199.323 342.289 199.235 342.289H115.665C114.952 342.289 114.25 342.115 113.621 341.781C112.991 341.446 112.453 340.963 112.054 340.372C111.654 339.782 111.406 339.103 111.33 338.394C111.254 337.685 111.354 336.969 111.619 336.307L128.041 295.643L138.102 270.717L180.901 271.005L179.443 279.517L175.323 303.471L169.991 334.602C169.921 335.019 169.942 335.447 170.053 335.856C170.165 336.264 170.364 336.643 170.637 336.967C170.91 337.291 171.25 337.552 171.633 337.731C172.017 337.91 172.435 338.003 172.859 338.005H199.227C199.315 338.002 199.402 338.018 199.484 338.05C199.566 338.082 199.641 338.13 199.704 338.192C199.767 338.253 199.817 338.327 199.851 338.408C199.885 338.489 199.902 338.576 199.902 338.664Z" fill="white"/>
<path opacity="0.2" d="M172.867 337.996H118.483C118.17 337.995 117.861 337.918 117.585 337.769C117.309 337.621 117.074 337.408 116.899 337.147C116.725 336.887 116.618 336.588 116.586 336.276C116.555 335.964 116.601 335.649 116.72 335.36L139.94 279.509H179.434L169.991 334.593C169.921 335.011 169.942 335.44 170.054 335.849C170.166 336.258 170.366 336.638 170.639 336.962C170.913 337.286 171.254 337.546 171.639 337.725C172.024 337.904 172.443 337.996 172.867 337.996Z" fill="black"/>
<path opacity="0.1" d="M180.901 270.997L179.443 279.509L175.331 303.462L128.041 295.643L138.102 270.708L180.901 270.997Z" fill="black"/>
<path d="M264.117 148.732H65.9859C65.3204 148.732 64.6615 148.863 64.0466 149.118C63.4318 149.372 62.8732 149.746 62.4026 150.216C61.932 150.687 61.5588 151.245 61.3041 151.86C61.0494 152.475 60.9183 153.134 60.9183 153.8V287.938C60.9183 289.283 61.4522 290.571 62.4026 291.522C63.353 292.472 64.6419 293.006 65.9859 293.006H264.117C265.462 293.006 266.751 292.472 267.703 291.522C268.655 290.572 269.19 289.283 269.193 287.938V153.8C269.19 152.455 268.655 151.166 267.703 150.216C266.751 149.266 265.462 148.732 264.117 148.732Z" fill="#263238"/>
<path opacity="0.6" d="M264.117 148.732H65.9859C65.3204 148.732 64.6615 148.863 64.0466 149.118C63.4318 149.372 62.8732 149.746 62.4026 150.216C61.932 150.687 61.5588 151.245 61.3041 151.86C61.0494 152.475 60.9183 153.134 60.9183 153.8V287.938C60.9183 289.283 61.4522 290.571 62.4026 291.522C63.353 292.472 64.6419 293.006 65.9859 293.006H264.117C265.462 293.006 266.751 292.472 267.703 291.522C268.655 290.572 269.19 289.283 269.193 287.938V153.8C269.19 152.455 268.655 151.166 267.703 150.216C266.751 149.266 265.462 148.732 264.117 148.732Z" fill="white"/>
<path opacity="0.2" d="M70.1883 292.998H65.9859C64.6434 292.998 63.3556 292.465 62.4055 291.517C61.4554 290.568 60.9205 289.281 60.9183 287.939V153.808C60.9173 153.142 61.0475 152.482 61.3017 151.866C61.5559 151.25 61.929 150.691 62.3997 150.219C62.8704 149.748 63.4294 149.374 64.0447 149.119C64.6601 148.863 65.3198 148.732 65.9859 148.732H70.1883C69.5201 148.729 68.8578 148.858 68.2396 149.111C67.6213 149.365 67.0594 149.739 66.5861 150.21C66.1128 150.682 65.7375 151.243 65.4817 151.86C65.226 152.478 65.0949 153.14 65.096 153.808V287.939C65.096 288.606 65.228 289.266 65.4843 289.882C65.7406 290.498 66.1162 291.058 66.5895 291.528C67.0628 291.998 67.6244 292.37 68.2421 292.622C68.8597 292.875 69.5212 293.002 70.1883 292.998Z" fill="black"/>
<path d="M264.628 153.091H69.694V282.434H264.628V153.091Z" fill="#00BFA6"/>
<path opacity="0.4" d="M164.47 202.325C173.818 202.325 181.395 194.747 181.395 185.4C181.395 176.053 173.818 168.475 164.47 168.475C155.123 168.475 147.545 176.053 147.545 185.4C147.545 194.747 155.123 202.325 164.47 202.325Z" fill="white"/>
<path d="M160.433 182.829V181.28C160.433 180.541 160.726 179.833 161.249 179.311C161.771 178.788 162.479 178.495 163.218 178.495H165.69C166.058 178.491 166.424 178.559 166.766 178.697C167.108 178.835 167.419 179.04 167.681 179.299C167.943 179.558 168.151 179.867 168.293 180.207C168.435 180.547 168.508 180.912 168.508 181.28V182.862H170.313V181.28C170.31 180.064 169.826 178.897 168.966 178.037C168.106 177.177 166.94 176.693 165.723 176.69H163.251C162.034 176.693 160.868 177.177 160.008 178.037C159.148 178.897 158.663 180.064 158.661 181.28V182.862L160.433 182.829Z" fill="white"/>
<path d="M156.354 184.914V193.228C156.354 193.349 156.378 193.469 156.424 193.581C156.471 193.693 156.539 193.795 156.624 193.88C156.71 193.966 156.812 194.034 156.924 194.08C157.036 194.127 157.156 194.151 157.277 194.151H171.664C171.785 194.151 171.905 194.127 172.017 194.08C172.129 194.034 172.231 193.966 172.317 193.88C172.402 193.795 172.47 193.693 172.517 193.581C172.563 193.469 172.587 193.349 172.587 193.228V184.914C172.587 184.669 172.49 184.434 172.317 184.261C172.143 184.088 171.909 183.991 171.664 183.991H157.277C157.156 183.991 157.036 184.015 156.924 184.061C156.812 184.107 156.71 184.175 156.624 184.261C156.539 184.347 156.471 184.448 156.424 184.56C156.378 184.672 156.354 184.792 156.354 184.914ZM164.99 189.619V191.267H163.976V189.619C163.828 189.536 163.703 189.417 163.614 189.273C163.524 189.129 163.473 188.964 163.465 188.795C163.465 188.521 163.574 188.259 163.767 188.066C163.96 187.873 164.222 187.765 164.495 187.765C164.768 187.765 165.03 187.873 165.223 188.066C165.417 188.259 165.525 188.521 165.525 188.795C165.515 188.967 165.46 189.133 165.366 189.277C165.272 189.422 165.142 189.539 164.99 189.619Z" fill="white"/>
<path d="M123.18 216.341H107.194C106.243 216.341 105.472 217.112 105.472 218.063V234.049C105.472 235 106.243 235.771 107.194 235.771H123.18C124.131 235.771 124.902 235 124.902 234.049V218.063C124.902 217.112 124.131 216.341 123.18 216.341Z" fill="white"/>
<path d="M147.826 216.316H131.84C130.889 216.316 130.118 217.087 130.118 218.039V234.024C130.118 234.975 130.889 235.746 131.84 235.746H147.826C148.777 235.746 149.548 234.975 149.548 234.024V218.039C149.548 217.087 148.777 216.316 147.826 216.316Z" fill="white"/>
<path d="M172.463 216.292H156.478C155.527 216.292 154.755 217.063 154.755 218.014V234C154.755 234.951 155.527 235.722 156.478 235.722H172.463C173.414 235.722 174.185 234.951 174.185 234V218.014C174.185 217.063 173.414 216.292 172.463 216.292Z" fill="white"/>
<path d="M197.101 216.259H181.115C180.164 216.259 179.393 217.03 179.393 217.981V233.967C179.393 234.918 180.164 235.689 181.115 235.689H197.101C198.052 235.689 198.823 234.918 198.823 233.967V217.981C198.823 217.03 198.052 216.259 197.101 216.259Z" fill="white"/>
<path d="M221.738 216.234H205.753C204.802 216.234 204.031 217.005 204.031 217.956V233.942C204.031 234.893 204.802 235.664 205.753 235.664H221.738C222.69 235.664 223.461 234.893 223.461 233.942V217.956C223.461 217.005 222.69 216.234 221.738 216.234Z" fill="white"/>
<path d="M209.469 226.328C209.469 222.909 211.298 220.964 213.754 220.964C216.209 220.964 218.03 222.909 218.03 226.328C218.03 229.748 216.201 231.692 213.754 231.692C211.307 231.692 209.469 229.748 209.469 226.328ZM216.531 226.328C216.531 223.642 215.385 222.299 213.754 222.299C212.122 222.299 210.969 223.642 210.969 226.328C210.969 229.014 212.106 230.357 213.754 230.357C215.402 230.357 216.531 229.006 216.531 226.328Z" fill="#263238"/>
<path d="M119.093 226.196C119.093 229.772 117.066 231.692 114.149 231.692C113.238 231.725 112.336 231.511 111.537 231.074L112.064 229.896C112.676 230.25 113.377 230.421 114.083 230.39C116.209 230.39 117.56 229.055 117.56 226.427V226.056C117.209 226.516 116.748 226.882 116.22 227.121C115.693 227.36 115.114 227.464 114.536 227.424C112.451 227.424 110.952 226.18 110.952 224.252C110.952 222.323 112.6 220.956 114.651 220.956C117.502 220.964 119.093 222.851 119.093 226.196ZM117.247 224.202C117.247 223.123 116.423 222.175 114.775 222.175C114.487 222.14 114.194 222.167 113.917 222.253C113.639 222.339 113.383 222.483 113.165 222.675C112.947 222.868 112.772 223.104 112.652 223.368C112.532 223.633 112.469 223.92 112.468 224.21C112.468 225.446 113.382 226.237 114.857 226.237C116.332 226.237 117.247 225.356 117.247 224.202Z" fill="#263238"/>
<path d="M135.548 226.328C135.548 222.909 137.377 220.964 139.833 220.964C142.288 220.964 144.109 222.909 144.109 226.328C144.109 229.748 142.28 231.692 139.833 231.692C137.385 231.692 135.548 229.748 135.548 226.328ZM142.61 226.328C142.61 223.642 141.473 222.299 139.833 222.299C138.193 222.299 137.048 223.642 137.048 226.328C137.048 229.014 138.185 230.357 139.833 230.357C141.481 230.357 142.61 229.014 142.61 226.328Z" fill="#263238"/>
<path d="M168.261 230.267V231.544H160.721V230.555L164.99 226.435C166.102 225.356 166.308 224.696 166.308 224.037C166.308 222.958 165.55 222.299 164.075 222.299C163.571 222.271 163.068 222.359 162.604 222.556C162.139 222.753 161.726 223.054 161.397 223.436L160.375 222.554C160.857 222.021 161.452 221.601 162.116 221.326C162.78 221.051 163.497 220.927 164.215 220.964C166.399 220.964 167.808 222.084 167.808 223.881C167.808 224.902 167.511 225.817 166.085 227.177L162.88 230.258L168.261 230.267Z" fill="#263238"/>
<path d="M190.344 221.079V231.544H188.861V222.389H186.488V221.079H190.344Z" fill="#263238"/>
<g opacity="0.6">
<path d="M146.038 211.595V211.966H143.178V207.92H145.947V208.291H143.607V209.733H145.691V210.12H143.607V211.62L146.038 211.595Z" fill="white"/>
<path d="M149.746 210.203V211.966H149.334V210.244C149.358 210.116 149.352 209.984 149.316 209.859C149.279 209.734 149.214 209.619 149.124 209.524C149.035 209.429 148.925 209.357 148.802 209.313C148.679 209.269 148.548 209.255 148.419 209.272C148.274 209.261 148.128 209.283 147.992 209.335C147.856 209.386 147.733 209.467 147.632 209.572C147.531 209.676 147.454 209.802 147.406 209.939C147.358 210.077 147.341 210.223 147.356 210.367V211.966H146.952V208.925H147.339V209.486C147.463 209.296 147.635 209.142 147.838 209.041C148.041 208.94 148.267 208.894 148.493 208.909C148.665 208.894 148.838 208.918 148.999 208.979C149.161 209.039 149.306 209.135 149.426 209.258C149.546 209.382 149.637 209.531 149.692 209.695C149.748 209.858 149.766 210.031 149.746 210.203Z" fill="white"/>
<path d="M152.44 211.768C152.259 211.915 152.03 211.991 151.797 211.983C151.679 211.992 151.559 211.976 151.447 211.936C151.336 211.895 151.234 211.831 151.149 211.747C151.065 211.663 150.999 211.562 150.957 211.45C150.916 211.339 150.899 211.22 150.907 211.101V209.296H150.364V208.95H150.907V208.291H151.319V208.95H152.242V209.296H151.319V211.109C151.319 211.472 151.501 211.661 151.838 211.661C152.002 211.666 152.163 211.614 152.292 211.513L152.44 211.768Z" fill="white"/>
<path d="M155.736 210.573H153.198C153.217 210.872 153.354 211.15 153.578 211.348C153.801 211.545 154.095 211.646 154.393 211.628C154.567 211.634 154.741 211.601 154.902 211.533C155.063 211.465 155.207 211.362 155.324 211.233L155.555 211.496C155.33 211.707 155.05 211.851 154.748 211.911C154.446 211.971 154.132 211.945 153.844 211.836C153.556 211.727 153.304 211.54 153.117 211.295C152.93 211.049 152.815 210.757 152.786 210.45C152.775 210.249 152.805 210.049 152.875 209.86C152.944 209.672 153.052 209.5 153.191 209.356C153.331 209.211 153.498 209.097 153.684 209.02C153.869 208.943 154.069 208.905 154.269 208.909C154.469 208.905 154.668 208.943 154.853 209.02C155.037 209.097 155.204 209.212 155.342 209.356C155.48 209.501 155.586 209.673 155.654 209.862C155.722 210.05 155.75 210.25 155.736 210.45C155.736 210.45 155.736 210.524 155.736 210.573ZM153.198 210.269H155.349C155.325 210 155.202 209.749 155.003 209.567C154.804 209.385 154.543 209.283 154.273 209.283C154.003 209.283 153.743 209.385 153.544 209.567C153.345 209.749 153.222 210 153.198 210.269Z" fill="white"/>
<path d="M158.101 208.909V209.296H158.002C157.857 209.288 157.712 209.313 157.578 209.368C157.444 209.423 157.324 209.507 157.226 209.615C157.128 209.722 157.055 209.849 157.013 209.988C156.97 210.127 156.959 210.273 156.98 210.417V211.966H156.56V208.925H156.955V209.519C157.061 209.312 157.228 209.143 157.433 209.034C157.637 208.925 157.87 208.881 158.101 208.909Z" fill="white"/>
<path d="M162.946 208.925L161.43 212.328C161.174 212.922 160.853 213.111 160.416 213.111C160.282 213.116 160.147 213.094 160.021 213.046C159.895 212.998 159.78 212.925 159.683 212.831L159.873 212.526C159.943 212.602 160.028 212.661 160.124 212.701C160.219 212.741 160.321 212.76 160.425 212.757C160.697 212.757 160.878 212.633 161.051 212.254L161.183 211.958L159.856 208.925H160.285L161.422 211.504L162.567 208.925H162.946Z" fill="white"/>
<path d="M163.152 210.45C163.15 210.143 163.24 209.843 163.409 209.587C163.578 209.331 163.82 209.131 164.103 209.013C164.385 208.894 164.697 208.863 164.998 208.921C165.299 208.98 165.576 209.127 165.794 209.343C166.011 209.56 166.159 209.836 166.22 210.136C166.28 210.437 166.25 210.749 166.133 211.033C166.016 211.316 165.818 211.559 165.563 211.729C165.308 211.9 165.008 211.991 164.701 211.991C164.496 211.999 164.292 211.965 164.101 211.89C163.91 211.816 163.736 211.703 163.591 211.558C163.445 211.413 163.331 211.24 163.256 211.05C163.18 210.859 163.145 210.655 163.152 210.45ZM165.822 210.45C165.812 210.229 165.737 210.015 165.607 209.836C165.477 209.657 165.297 209.52 165.09 209.442C164.882 209.365 164.657 209.35 164.441 209.399C164.225 209.449 164.029 209.561 163.876 209.721C163.723 209.882 163.621 210.084 163.582 210.302C163.544 210.52 163.57 210.744 163.658 210.948C163.746 211.151 163.892 211.324 164.077 211.445C164.263 211.566 164.48 211.63 164.701 211.628C164.852 211.627 165.001 211.596 165.139 211.535C165.277 211.475 165.401 211.386 165.504 211.276C165.607 211.166 165.686 211.035 165.736 210.893C165.786 210.751 165.807 210.6 165.797 210.45H165.822Z" fill="white"/>
<path d="M169.785 208.925V211.966H169.398V211.406C169.285 211.593 169.124 211.746 168.931 211.849C168.738 211.952 168.521 212.001 168.302 211.991C168.128 212.008 167.952 211.986 167.788 211.926C167.623 211.866 167.474 211.77 167.352 211.646C167.229 211.521 167.136 211.37 167.079 211.204C167.023 211.039 167.004 210.862 167.025 210.689V208.925H167.429V210.647C167.404 210.775 167.41 210.907 167.447 211.032C167.483 211.158 167.548 211.272 167.638 211.367C167.727 211.462 167.837 211.534 167.96 211.578C168.083 211.622 168.214 211.636 168.343 211.62C168.486 211.628 168.63 211.605 168.763 211.552C168.896 211.499 169.016 211.417 169.114 211.312C169.212 211.208 169.287 211.083 169.331 210.947C169.376 210.811 169.39 210.666 169.373 210.524V208.925H169.785Z" fill="white"/>
<path d="M172.463 208.909V209.296H172.364C172.219 209.289 172.075 209.313 171.94 209.368C171.806 209.423 171.686 209.508 171.588 209.615C171.491 209.722 171.418 209.849 171.375 209.988C171.333 210.127 171.322 210.273 171.343 210.417V211.966H170.931V208.925H171.326V209.519C171.431 209.314 171.597 209.146 171.8 209.037C172.003 208.928 172.234 208.883 172.463 208.909Z" fill="white"/>
<path d="M174.482 209.947C174.467 209.524 174.579 209.106 174.804 208.747C175.028 208.387 175.355 208.103 175.742 207.931C176.129 207.759 176.558 207.706 176.975 207.779C177.392 207.853 177.778 208.049 178.083 208.343C178.388 208.637 178.598 209.016 178.686 209.43C178.774 209.844 178.737 210.276 178.578 210.668C178.42 211.061 178.147 211.398 177.796 211.635C177.445 211.872 177.031 211.999 176.608 211.999C176.332 212.01 176.057 211.965 175.799 211.867C175.541 211.769 175.305 211.619 175.106 211.427C174.908 211.236 174.75 211.006 174.643 210.751C174.535 210.497 174.481 210.223 174.482 209.947ZM178.297 209.947C178.307 209.607 178.214 209.273 178.032 208.986C177.849 208.699 177.585 208.474 177.272 208.34C176.96 208.205 176.615 208.167 176.281 208.231C175.947 208.295 175.64 208.458 175.4 208.698C175.16 208.938 174.997 209.245 174.933 209.579C174.869 209.913 174.907 210.258 175.042 210.57C175.176 210.883 175.401 211.147 175.688 211.33C175.975 211.512 176.309 211.605 176.649 211.595C177.086 211.595 177.505 211.422 177.814 211.112C178.124 210.803 178.297 210.384 178.297 209.947Z" fill="white"/>
<path d="M180.407 208.291H178.989V207.92H182.285V208.291H180.86V211.966H180.431L180.407 208.291Z" fill="white"/>
<path d="M186.1 209.296C186.1 210.12 185.474 210.672 184.452 210.672H183.373V211.95H182.928V207.904H184.436C185.474 207.92 186.1 208.472 186.1 209.296ZM185.672 209.296C185.672 208.645 185.243 208.275 184.436 208.275H183.365V210.293H184.436C185.243 210.31 185.672 209.947 185.672 209.296Z" fill="white"/>
</g>
<g opacity="0.6">
<path d="M148.444 246.285L148.608 245.964C148.978 246.285 149.454 246.458 149.943 246.45C150.693 246.45 151.023 246.137 151.023 245.733C151.023 244.629 148.551 245.305 148.551 243.813C148.551 243.22 149.012 242.709 150.034 242.709C150.477 242.703 150.912 242.826 151.286 243.064L151.146 243.401C150.814 243.189 150.428 243.075 150.034 243.072C149.301 243.072 148.971 243.401 148.971 243.805C148.971 244.909 151.443 244.242 151.443 245.709C151.443 246.31 150.973 246.813 149.943 246.813C149.395 246.833 148.859 246.645 148.444 246.285Z" fill="white"/>
<path d="M154.912 245.388H152.374C152.393 245.686 152.53 245.964 152.754 246.162C152.978 246.359 153.271 246.46 153.569 246.442C153.743 246.448 153.917 246.415 154.078 246.347C154.239 246.279 154.383 246.176 154.5 246.047L154.731 246.31C154.586 246.476 154.405 246.608 154.203 246.695C154 246.782 153.781 246.822 153.561 246.813C153.352 246.826 153.142 246.795 152.946 246.722C152.749 246.649 152.57 246.537 152.42 246.391C152.27 246.245 152.151 246.07 152.072 245.876C151.994 245.682 151.956 245.473 151.962 245.264C151.952 245.064 151.983 244.864 152.053 244.676C152.123 244.488 152.231 244.317 152.37 244.173C152.509 244.028 152.676 243.914 152.861 243.837C153.046 243.759 153.245 243.721 153.445 243.723C153.646 243.718 153.846 243.755 154.031 243.831C154.217 243.908 154.385 244.022 154.523 244.168C154.662 244.313 154.769 244.485 154.838 244.674C154.906 244.863 154.934 245.064 154.92 245.264C154.92 245.264 154.912 245.346 154.912 245.388ZM152.374 245.083H154.525C154.501 244.814 154.378 244.563 154.179 244.381C153.98 244.199 153.719 244.097 153.449 244.097C153.179 244.097 152.919 244.199 152.72 244.381C152.521 244.563 152.398 244.814 152.374 245.083Z" fill="white"/>
<path d="M158.562 245.017V246.78H158.159V245.058C158.182 244.93 158.174 244.799 158.137 244.675C158.1 244.551 158.035 244.438 157.945 244.344C157.856 244.25 157.746 244.179 157.625 244.135C157.503 244.092 157.372 244.077 157.244 244.094C157.099 244.083 156.953 244.105 156.817 244.157C156.681 244.209 156.558 244.29 156.457 244.394C156.356 244.498 156.279 244.624 156.231 244.761C156.183 244.899 156.166 245.045 156.181 245.19V246.78H155.736V243.748H156.131V244.308C156.254 244.117 156.426 243.961 156.629 243.859C156.832 243.756 157.058 243.709 157.285 243.723C157.459 243.704 157.634 243.725 157.799 243.784C157.964 243.843 158.113 243.938 158.236 244.062C158.358 244.186 158.451 244.337 158.508 244.502C158.565 244.667 158.583 244.843 158.562 245.017Z" fill="white"/>
<path d="M162.46 242.495V246.78H162.064V246.178C161.944 246.379 161.772 246.544 161.566 246.655C161.36 246.767 161.128 246.821 160.894 246.813C160.504 246.784 160.139 246.609 159.873 246.323C159.606 246.036 159.458 245.659 159.458 245.268C159.458 244.877 159.606 244.5 159.873 244.213C160.139 243.927 160.504 243.751 160.894 243.723C161.122 243.715 161.348 243.766 161.55 243.871C161.753 243.977 161.924 244.133 162.048 244.324V242.495H162.46ZM162.056 245.264C162.046 245.043 161.972 244.83 161.842 244.651C161.712 244.472 161.533 244.335 161.326 244.257C161.119 244.179 160.894 244.163 160.678 244.212C160.463 244.261 160.266 244.373 160.113 244.532C159.96 244.692 159.857 244.893 159.818 245.111C159.778 245.328 159.803 245.552 159.89 245.756C159.976 245.959 160.121 246.133 160.305 246.255C160.49 246.377 160.706 246.442 160.927 246.442C161.08 246.445 161.232 246.415 161.374 246.357C161.515 246.298 161.643 246.21 161.749 246.099C161.855 245.989 161.937 245.857 161.99 245.714C162.043 245.57 162.065 245.417 162.056 245.264Z" fill="white"/>
<path d="M167.404 244.901V246.78H167.008V246.31C166.894 246.479 166.737 246.615 166.553 246.703C166.369 246.791 166.165 246.829 165.962 246.813C165.278 246.813 164.858 246.45 164.858 245.923C164.858 245.396 165.154 245.099 166.028 245.099H166.992V244.918C167.003 244.807 166.99 244.694 166.953 244.589C166.916 244.484 166.855 244.388 166.776 244.309C166.697 244.23 166.602 244.17 166.496 244.133C166.391 244.095 166.279 244.082 166.168 244.094C165.797 244.088 165.437 244.217 165.154 244.456L164.973 244.151C165.321 243.874 165.756 243.728 166.201 243.739C166.36 243.721 166.521 243.737 166.673 243.788C166.824 243.84 166.963 243.924 167.078 244.035C167.193 244.146 167.282 244.282 167.338 244.431C167.395 244.581 167.417 244.742 167.404 244.901ZM166.992 245.865V245.371H166.036C165.451 245.371 165.261 245.602 165.261 245.915C165.261 246.228 165.542 246.483 166.028 246.483C166.233 246.497 166.438 246.444 166.611 246.333C166.785 246.222 166.918 246.058 166.992 245.865Z" fill="white"/>
<path d="M171.334 243.747V246.376C171.367 246.582 171.35 246.794 171.285 246.992C171.22 247.191 171.11 247.372 170.962 247.52C170.814 247.667 170.633 247.778 170.435 247.843C170.236 247.908 170.025 247.924 169.818 247.892C169.306 247.912 168.803 247.748 168.401 247.431L168.607 247.118C168.945 247.391 169.368 247.536 169.802 247.53C170.576 247.53 170.922 247.183 170.922 246.434V246.046C170.792 246.236 170.615 246.39 170.409 246.492C170.203 246.594 169.974 246.642 169.744 246.631C169.542 246.647 169.338 246.62 169.147 246.553C168.955 246.486 168.779 246.38 168.631 246.242C168.482 246.104 168.363 245.936 168.282 245.75C168.201 245.564 168.159 245.363 168.159 245.161C168.159 244.958 168.201 244.757 168.282 244.571C168.363 244.385 168.482 244.217 168.631 244.079C168.779 243.941 168.955 243.835 169.147 243.768C169.338 243.701 169.542 243.675 169.744 243.69C169.978 243.678 170.211 243.728 170.421 243.833C170.63 243.939 170.808 244.096 170.939 244.291V243.714L171.334 243.747ZM170.939 245.189C170.947 244.96 170.886 244.733 170.765 244.538C170.643 244.343 170.466 244.188 170.256 244.095C170.046 244.001 169.813 243.972 169.587 244.012C169.36 244.052 169.151 244.158 168.985 244.318C168.82 244.477 168.706 244.683 168.658 244.908C168.61 245.132 168.63 245.366 168.716 245.58C168.802 245.793 168.95 245.975 169.14 246.104C169.331 246.233 169.555 246.302 169.785 246.302C169.936 246.311 170.086 246.289 170.228 246.237C170.369 246.185 170.498 246.104 170.607 245.999C170.715 245.894 170.801 245.768 170.858 245.629C170.915 245.49 170.943 245.34 170.939 245.189Z" fill="white"/>
<path d="M174.77 244.901V246.78H174.383V246.31C174.268 246.479 174.111 246.614 173.927 246.702C173.743 246.79 173.54 246.828 173.337 246.813C172.644 246.813 172.224 246.45 172.224 245.923C172.224 245.396 172.529 245.099 173.403 245.099H174.358V244.918C174.358 244.399 174.07 244.094 173.534 244.094C173.167 244.089 172.809 244.218 172.529 244.456L172.34 244.151C172.691 243.874 173.128 243.728 173.576 243.739C173.734 243.722 173.894 243.74 174.045 243.791C174.196 243.843 174.333 243.927 174.447 244.038C174.561 244.15 174.65 244.285 174.705 244.434C174.761 244.583 174.784 244.743 174.77 244.901ZM174.358 245.865V245.371H173.411C172.818 245.371 172.628 245.602 172.628 245.915C172.628 246.228 172.916 246.483 173.403 246.483C173.607 246.498 173.811 246.445 173.984 246.334C174.156 246.222 174.288 246.058 174.358 245.865Z" fill="white"/>
<path d="M175.792 242.784C175.804 242.713 175.841 242.648 175.896 242.601C175.951 242.554 176.021 242.529 176.093 242.529C176.165 242.529 176.235 242.554 176.29 242.601C176.345 242.648 176.382 242.713 176.394 242.784C176.382 242.855 176.345 242.92 176.29 242.966C176.235 243.013 176.165 243.039 176.093 243.039C176.021 243.039 175.951 243.013 175.896 242.966C175.841 242.92 175.804 242.855 175.792 242.784ZM175.883 243.748H176.295V246.78H175.883V243.748Z" fill="white"/>
<path d="M180.225 245.016V246.78H179.822V245.058C179.845 244.93 179.837 244.799 179.8 244.675C179.763 244.551 179.698 244.438 179.608 244.344C179.519 244.25 179.409 244.178 179.288 244.135C179.166 244.091 179.035 244.077 178.907 244.094C178.762 244.083 178.616 244.105 178.48 244.157C178.344 244.208 178.221 244.289 178.12 244.394C178.019 244.498 177.942 244.624 177.894 244.761C177.846 244.899 177.829 245.045 177.844 245.189V246.78H177.44V243.747H177.827V244.308C177.95 244.116 178.122 243.961 178.325 243.858C178.528 243.756 178.754 243.709 178.981 243.723C179.152 243.709 179.324 243.734 179.485 243.795C179.645 243.856 179.79 243.952 179.909 244.076C180.028 244.199 180.118 244.348 180.173 244.511C180.227 244.673 180.245 244.846 180.225 245.016Z" fill="white"/>
</g>
<path opacity="0.4" d="M187.427 267.38H141.506C139.691 267.378 137.951 266.655 136.669 265.371C135.387 264.088 134.666 262.347 134.666 260.532C134.666 258.718 135.387 256.977 136.669 255.694C137.951 254.41 139.691 253.687 141.506 253.685H187.427C189.243 253.685 190.985 254.406 192.269 255.691C193.553 256.975 194.275 258.716 194.275 260.532C194.275 262.349 193.553 264.09 192.269 265.374C190.985 266.659 189.243 267.38 187.427 267.38Z" fill="white"/>
<path d="M146.557 260.186C146.553 259.866 146.615 259.547 146.739 259.252C146.863 258.956 147.047 258.689 147.279 258.467C147.511 258.245 147.786 258.074 148.087 257.962C148.388 257.851 148.708 257.803 149.029 257.822C149.356 257.81 149.682 257.869 149.985 257.994C150.288 258.119 150.56 258.307 150.784 258.547L150.355 258.959C150.19 258.78 149.988 258.64 149.763 258.546C149.539 258.452 149.297 258.407 149.053 258.415C148.761 258.418 148.474 258.493 148.217 258.634C147.961 258.775 147.743 258.977 147.584 259.222C147.425 259.468 147.329 259.749 147.305 260.041C147.281 260.332 147.329 260.625 147.446 260.893C147.563 261.162 147.744 261.397 147.974 261.578C148.204 261.759 148.475 261.88 148.763 261.931C149.051 261.982 149.347 261.96 149.625 261.869C149.903 261.777 150.154 261.618 150.355 261.406L150.784 261.818C150.559 262.058 150.285 262.247 149.981 262.372C149.677 262.497 149.349 262.555 149.02 262.543C148.701 262.561 148.382 262.513 148.082 262.403C147.782 262.292 147.508 262.121 147.277 261.9C147.045 261.679 146.862 261.413 146.739 261.118C146.615 260.823 146.553 260.506 146.557 260.186Z" fill="white"/>
<path d="M151.229 260.186C151.206 259.693 151.331 259.204 151.588 258.783C151.845 258.361 152.223 258.027 152.672 257.822C153.121 257.617 153.622 257.551 154.108 257.633C154.595 257.715 155.046 257.941 155.404 258.281C155.761 258.622 156.008 259.062 156.113 259.544C156.219 260.027 156.177 260.53 155.994 260.988C155.81 261.446 155.494 261.84 155.085 262.117C154.677 262.394 154.194 262.542 153.701 262.543C153.381 262.559 153.062 262.511 152.762 262.4C152.462 262.289 152.188 262.118 151.957 261.897C151.725 261.677 151.541 261.411 151.416 261.117C151.291 260.822 151.227 260.506 151.229 260.186ZM155.472 260.186C155.477 259.829 155.376 259.479 155.181 259.181C154.986 258.882 154.707 258.648 154.379 258.508C154.051 258.369 153.688 258.33 153.338 258.397C152.988 258.464 152.665 258.634 152.412 258.885C152.159 259.136 151.986 259.457 151.915 259.807C151.845 260.156 151.88 260.519 152.017 260.849C152.153 261.178 152.385 261.46 152.682 261.657C152.979 261.855 153.328 261.959 153.684 261.958C153.92 261.966 154.155 261.925 154.374 261.839C154.593 261.753 154.793 261.623 154.96 261.457C155.128 261.292 155.26 261.093 155.348 260.875C155.436 260.656 155.478 260.422 155.472 260.186Z" fill="white"/>
<path d="M161.109 257.912V262.527H160.565L157.796 259.082V262.527H157.137V257.912H157.681L160.449 261.348V257.912H161.109Z" fill="white"/>
<path d="M163.408 258.448H161.825V257.912H165.624V258.481H164.058V262.527H163.408V258.448Z" fill="white"/>
<path d="M166.357 257.912H167.017V262.527H166.357V257.912Z" fill="white"/>
<path d="M172.373 257.912V262.527H171.829L169.06 259.082V262.527H168.401V257.912H168.92L171.689 261.348V257.912H172.373Z" fill="white"/>
<path d="M173.716 260.499V257.912H174.375V260.508C174.375 261.529 174.845 261.991 175.677 261.991C176.509 261.991 176.979 261.529 176.979 260.508V257.912H177.621V260.532C177.621 261.05 177.416 261.547 177.049 261.913C176.683 262.28 176.187 262.485 175.669 262.485C175.151 262.485 174.654 262.28 174.288 261.913C173.921 261.547 173.716 261.05 173.716 260.532V260.499Z" fill="white"/>
<path d="M182.318 261.917V262.494H178.973V257.912H182.269V258.481H179.632V259.898H181.939V260.458H179.632V261.95L182.318 261.917Z" fill="white"/>
<path opacity="0.1" d="M244.308 153.692C217.355 180.695 148.131 240.797 69.694 236.348V153.692H244.308Z" fill="white"/>
<path opacity="0.1" d="M264.619 203.322V283.044H147.265C151.764 266.943 160.762 244.893 178.215 229.138C209.609 200.792 246.046 200.875 264.619 203.322Z" fill="white"/>
<path d="M289.414 140.978L292.149 153.058L294.885 140.978H289.414Z" fill="#00BFA6"/>
<path opacity="0.7" d="M289.414 140.978L292.149 153.058L294.885 140.978H289.414Z" fill="white"/>
<path d="M322.769 106.774H261.538C257.628 106.774 254.459 109.943 254.459 113.852V136.578C254.459 140.487 257.628 143.656 261.538 143.656H322.769C326.678 143.656 329.847 140.487 329.847 136.578V113.852C329.847 109.943 326.678 106.774 322.769 106.774Z" fill="#00BFA6"/>
<path opacity="0.7" d="M322.769 106.774H261.538C257.628 106.774 254.459 109.943 254.459 113.852V136.578C254.459 140.487 257.628 143.656 261.538 143.656H322.769C326.678 143.656 329.847 140.487 329.847 136.578V113.852C329.847 109.943 326.678 106.774 322.769 106.774Z" fill="white"/>
<g opacity="0.5">
<path d="M269.514 120.304V121.894H268.863V120.304L267.034 117.305H267.742L269.217 119.777L270.7 117.305H271.351L269.514 120.304Z" fill="#263238"/>
<path d="M271.203 120.155C271.197 119.794 271.298 119.439 271.494 119.135C271.69 118.831 271.972 118.592 272.304 118.45C272.636 118.307 273.003 118.266 273.359 118.332C273.714 118.399 274.042 118.57 274.3 118.823C274.558 119.076 274.734 119.401 274.807 119.755C274.88 120.109 274.846 120.477 274.71 120.811C274.573 121.146 274.339 121.432 274.039 121.634C273.739 121.836 273.386 121.943 273.024 121.943C272.785 121.955 272.546 121.917 272.322 121.831C272.098 121.746 271.894 121.615 271.723 121.447C271.552 121.279 271.417 121.078 271.328 120.856C271.239 120.633 271.196 120.395 271.203 120.155ZM274.194 120.155C274.208 119.993 274.188 119.829 274.135 119.675C274.082 119.521 273.998 119.379 273.887 119.259C273.777 119.139 273.643 119.043 273.494 118.978C273.344 118.912 273.183 118.879 273.02 118.879C272.857 118.879 272.696 118.912 272.546 118.978C272.397 119.043 272.263 119.139 272.153 119.259C272.042 119.379 271.958 119.521 271.905 119.675C271.852 119.829 271.832 119.993 271.846 120.155C271.832 120.318 271.852 120.481 271.905 120.636C271.958 120.79 272.042 120.931 272.153 121.051C272.263 121.171 272.397 121.267 272.546 121.333C272.696 121.398 272.857 121.432 273.02 121.432C273.183 121.432 273.344 121.398 273.494 121.333C273.643 121.267 273.777 121.171 273.887 121.051C273.998 120.931 274.082 120.79 274.135 120.636C274.188 120.481 274.208 120.318 274.194 120.155Z" fill="#263238"/>
<path d="M278.965 118.409V121.902H278.372V121.375C278.235 121.559 278.055 121.706 277.849 121.805C277.642 121.904 277.414 121.952 277.185 121.944C276.981 121.965 276.774 121.94 276.58 121.87C276.387 121.801 276.211 121.689 276.066 121.543C275.922 121.396 275.812 121.219 275.744 121.025C275.677 120.831 275.654 120.624 275.677 120.419V118.409H276.312V120.353C276.312 121.037 276.658 121.375 277.259 121.375C277.41 121.385 277.561 121.361 277.702 121.306C277.842 121.25 277.969 121.164 278.072 121.054C278.175 120.943 278.253 120.811 278.299 120.668C278.345 120.524 278.359 120.371 278.339 120.221V118.409H278.965Z" fill="#263238"/>
<path d="M282.055 118.376V118.994H281.907C281.753 118.984 281.599 119.008 281.456 119.065C281.313 119.122 281.184 119.21 281.079 119.323C280.974 119.435 280.896 119.57 280.849 119.717C280.803 119.864 280.79 120.019 280.811 120.172V121.911H280.16V118.409H280.77V119.002C280.902 118.786 281.093 118.612 281.321 118.501C281.549 118.39 281.804 118.346 282.055 118.376Z" fill="#263238"/>
<path d="M284.371 119.595C284.349 119.102 284.476 118.614 284.734 118.194C284.992 117.774 285.371 117.44 285.82 117.236C286.269 117.033 286.769 116.968 287.256 117.051C287.742 117.134 288.193 117.361 288.549 117.702C288.906 118.043 289.152 118.483 289.256 118.965C289.361 119.447 289.318 119.95 289.135 120.408C288.951 120.866 288.635 121.258 288.226 121.535C287.818 121.812 287.336 121.96 286.843 121.96C286.522 121.978 286.202 121.93 285.901 121.819C285.6 121.708 285.325 121.536 285.093 121.315C284.861 121.093 284.677 120.826 284.553 120.53C284.429 120.234 284.367 119.916 284.371 119.595ZM288.614 119.595C288.619 119.239 288.518 118.889 288.323 118.59C288.128 118.291 287.849 118.057 287.521 117.917C287.192 117.778 286.83 117.739 286.48 117.806C286.13 117.874 285.807 118.043 285.554 118.294C285.3 118.546 285.127 118.866 285.057 119.216C284.987 119.566 285.022 119.928 285.158 120.258C285.295 120.587 285.526 120.869 285.823 121.066C286.12 121.264 286.469 121.368 286.826 121.367C287.062 121.375 287.296 121.334 287.516 121.248C287.735 121.162 287.935 121.033 288.102 120.867C288.27 120.701 288.401 120.502 288.489 120.284C288.578 120.065 288.62 119.831 288.614 119.595Z" fill="#263238"/>
<path d="M291.136 117.832H289.554V117.263H293.344V117.832H291.762V121.869H291.111L291.136 117.832Z" fill="#263238"/>
<path d="M297.81 118.903C297.81 119.9 297.085 120.51 295.882 120.51H294.745V121.903H294.086V117.296H295.882C297.085 117.296 297.81 117.898 297.81 118.903ZM297.151 118.903C297.151 118.244 296.706 117.865 295.865 117.865H294.745V119.933H295.865C296.706 119.933 297.151 119.562 297.151 118.903Z" fill="#263238"/>
<path d="M300.241 119.595C300.263 119.118 300.423 118.658 300.701 118.27C300.979 117.882 301.363 117.583 301.808 117.408C302.252 117.234 302.737 117.192 303.205 117.288C303.673 117.383 304.103 117.612 304.443 117.947L304.015 118.367C303.85 118.188 303.648 118.046 303.423 117.951C303.199 117.856 302.957 117.809 302.713 117.815C302.243 117.815 301.792 118.002 301.46 118.334C301.128 118.666 300.941 119.117 300.941 119.587C300.941 120.057 301.128 120.507 301.46 120.84C301.792 121.172 302.243 121.358 302.713 121.358C302.957 121.364 303.199 121.318 303.423 121.223C303.648 121.128 303.85 120.986 304.015 120.806L304.443 121.227C304.103 121.561 303.673 121.79 303.205 121.886C302.737 121.981 302.252 121.939 301.808 121.765C301.363 121.591 300.979 121.292 300.701 120.904C300.423 120.516 300.263 120.055 300.241 119.579V119.595Z" fill="#263238"/>
<path d="M304.822 120.155C304.816 119.794 304.917 119.439 305.113 119.135C305.309 118.831 305.591 118.592 305.923 118.45C306.255 118.307 306.623 118.266 306.978 118.332C307.333 118.399 307.661 118.57 307.919 118.823C308.177 119.076 308.354 119.401 308.427 119.755C308.5 120.109 308.466 120.477 308.329 120.811C308.192 121.146 307.959 121.432 307.658 121.634C307.358 121.836 307.005 121.943 306.643 121.943C306.404 121.955 306.165 121.917 305.941 121.831C305.717 121.746 305.513 121.615 305.342 121.447C305.171 121.279 305.037 121.078 304.947 120.856C304.858 120.633 304.815 120.395 304.822 120.155ZM307.813 120.155C307.827 119.993 307.807 119.829 307.754 119.675C307.701 119.521 307.617 119.379 307.507 119.259C307.396 119.139 307.262 119.043 307.113 118.978C306.964 118.912 306.802 118.879 306.639 118.879C306.476 118.879 306.315 118.912 306.166 118.978C306.016 119.043 305.882 119.139 305.772 119.259C305.662 119.379 305.577 119.521 305.524 119.675C305.472 119.829 305.451 119.993 305.465 120.155C305.451 120.318 305.472 120.481 305.524 120.636C305.577 120.79 305.662 120.931 305.772 121.051C305.882 121.171 306.016 121.267 306.166 121.333C306.315 121.398 306.476 121.432 306.639 121.432C306.802 121.432 306.964 121.398 307.113 121.333C307.262 121.267 307.396 121.171 307.507 121.051C307.617 120.931 307.701 120.79 307.754 120.636C307.807 120.481 307.827 120.318 307.813 120.155Z" fill="#263238"/>
<path d="M312.626 117.008V121.894H312.024V121.342C311.88 121.534 311.692 121.689 311.475 121.792C311.258 121.895 311.02 121.945 310.78 121.935C310.328 121.905 309.904 121.703 309.595 121.372C309.285 121.041 309.113 120.605 309.113 120.151C309.113 119.698 309.285 119.262 309.595 118.931C309.904 118.599 310.328 118.398 310.78 118.367C311.013 118.36 311.244 118.407 311.455 118.504C311.667 118.602 311.853 118.747 311.999 118.928V117.008H312.626ZM311.999 120.147C311.988 119.917 311.909 119.694 311.773 119.508C311.636 119.322 311.448 119.18 311.231 119.1C311.015 119.02 310.78 119.005 310.555 119.057C310.33 119.11 310.125 119.227 309.967 119.395C309.808 119.563 309.702 119.773 309.662 120.001C309.622 120.228 309.65 120.462 309.741 120.674C309.833 120.886 309.985 121.066 310.179 121.192C310.372 121.318 310.598 121.385 310.829 121.383C310.989 121.387 311.148 121.358 311.295 121.296C311.443 121.235 311.576 121.144 311.686 121.028C311.796 120.913 311.881 120.775 311.935 120.625C311.989 120.475 312.011 120.315 311.999 120.155V120.147Z" fill="#263238"/>
<path d="M316.968 120.37H314.142C314.181 120.669 314.334 120.942 314.568 121.132C314.803 121.322 315.101 121.415 315.402 121.391C315.59 121.398 315.778 121.364 315.951 121.292C316.125 121.219 316.28 121.11 316.408 120.971L316.762 121.375C316.504 121.637 316.176 121.818 315.817 121.897C315.458 121.976 315.083 121.949 314.739 121.821C314.395 121.692 314.096 121.466 313.877 121.17C313.658 120.875 313.53 120.522 313.507 120.155C313.498 119.921 313.537 119.688 313.622 119.469C313.707 119.251 313.835 119.052 314 118.886C314.164 118.719 314.361 118.587 314.578 118.5C314.795 118.412 315.028 118.37 315.262 118.376C315.499 118.364 315.735 118.403 315.955 118.491C316.175 118.579 316.373 118.713 316.536 118.884C316.7 119.055 316.824 119.259 316.902 119.483C316.979 119.707 317.007 119.945 316.985 120.18C316.983 120.244 316.977 120.307 316.968 120.37ZM314.142 119.916H316.416C316.392 119.637 316.264 119.377 316.057 119.187C315.85 118.997 315.58 118.892 315.299 118.892C315.019 118.892 314.749 118.997 314.542 119.187C314.335 119.377 314.207 119.637 314.183 119.916H314.142Z" fill="#263238"/>
</g>
<g opacity="0.5">
<path d="M282.632 129.121C282.632 131.717 281.174 133.101 279.039 133.101C278.382 133.124 277.73 132.97 277.152 132.656L277.564 131.832C278.01 132.086 278.519 132.208 279.031 132.186C280.572 132.186 281.553 131.222 281.553 129.319V129.055C281.298 129.389 280.964 129.655 280.582 129.829C280.2 130.003 279.78 130.08 279.361 130.052C279.036 130.088 278.708 130.055 278.396 129.956C278.085 129.857 277.798 129.694 277.554 129.478C277.309 129.261 277.113 128.996 276.977 128.699C276.841 128.402 276.769 128.08 276.765 127.753C276.773 127.416 276.85 127.084 276.991 126.778C277.131 126.471 277.334 126.197 277.584 125.972C277.835 125.746 278.13 125.575 278.449 125.467C278.769 125.36 279.107 125.319 279.443 125.347C281.478 125.331 282.632 126.698 282.632 129.121ZM281.289 127.72C281.289 126.937 280.663 126.253 279.476 126.253C279.269 126.232 279.059 126.253 278.861 126.317C278.663 126.381 278.48 126.486 278.325 126.625C278.17 126.764 278.045 126.934 277.96 127.124C277.874 127.314 277.829 127.52 277.828 127.728C277.828 128.618 278.487 129.195 279.55 129.195C279.762 129.217 279.976 129.195 280.179 129.132C280.383 129.069 280.571 128.965 280.733 128.828C280.896 128.69 281.029 128.521 281.124 128.33C281.22 128.14 281.276 127.933 281.289 127.72Z" fill="#263238"/>
<path d="M283.67 129.22C283.67 126.748 284.997 125.331 286.777 125.331C288.557 125.331 289.867 126.748 289.867 129.22C289.867 131.692 288.54 133.101 286.777 133.101C285.013 133.101 283.67 131.692 283.67 129.22ZM288.779 129.22C288.779 127.275 287.955 126.303 286.777 126.303C285.598 126.303 284.758 127.275 284.758 129.22C284.758 131.164 285.582 132.137 286.777 132.137C287.972 132.137 288.779 131.164 288.779 129.22Z" fill="#263238"/>
<path d="M296.22 132.071V133.018H290.757V132.277L293.855 129.294C294.679 128.511 294.802 128.033 294.802 127.555C294.802 126.781 294.25 126.303 293.154 126.303C292.79 126.281 292.425 126.344 292.09 126.487C291.754 126.63 291.455 126.849 291.218 127.127L290.476 126.484C290.825 126.098 291.255 125.794 291.735 125.595C292.215 125.395 292.734 125.305 293.253 125.33C294.835 125.33 295.857 126.154 295.857 127.448C295.845 127.915 295.726 128.372 295.511 128.786C295.295 129.2 294.988 129.56 294.613 129.838L292.289 132.071H296.22Z" fill="#263238"/>
<path d="M299.466 125.421V133.018H298.387V126.368H296.64V125.421H299.466Z" fill="#263238"/>
<path d="M301.123 129.22C301.123 126.748 302.449 125.331 304.229 125.331C306.009 125.331 307.319 126.748 307.319 129.22C307.319 131.692 306.001 133.101 304.229 133.101C302.457 133.101 301.123 131.692 301.123 129.22ZM306.24 129.22C306.24 127.275 305.416 126.303 304.229 126.303C303.042 126.303 302.21 127.275 302.21 129.22C302.21 131.164 303.034 132.137 304.229 132.137C305.424 132.137 306.24 131.164 306.24 129.22Z" fill="#263238"/>
</g>
<path d="M285.376 176.41C290.295 179.814 295.797 182.286 301.609 183.703H301.666C301.231 183.69 300.803 183.811 300.439 184.049C300.079 184.273 299.793 184.596 299.615 184.98C299.554 185.097 299.521 185.227 299.516 185.359C299.648 183.628 298.898 181.684 298.37 179.813C297.423 176.855 296.31 173.823 295.198 170.848L298.379 169.143C301.007 173.172 309.783 185.927 303.792 189.619C302.765 190.218 301.552 190.412 300.389 190.163C293.862 189.196 287.637 186.768 282.179 183.06C281.8 182.796 281.47 182.566 281.025 182.236L285.392 176.394L285.376 176.41Z" fill="#DC897C"/>
<path d="M284.453 175.512C287.338 175.86 290.077 176.972 292.388 178.734L289.092 188.935C289.092 188.935 273.074 174.169 284.453 175.512Z" fill="#00BFA6"/>
<path opacity="0.6" d="M284.42 184.09C285.886 185.769 287.438 187.373 289.067 188.894L290.427 184.7L292.388 178.693C290.08 176.932 287.343 175.82 284.461 175.471C277.457 174.688 280.803 179.929 284.42 184.09Z" fill="white"/>
<path opacity="0.2" d="M284.42 184.09C285.886 185.769 287.437 187.373 289.067 188.894L290.427 184.7C288.717 183.368 286.612 182.643 284.445 182.64C284.396 183.121 284.387 183.607 284.42 184.09Z" fill="black"/>
<path d="M248.848 160.424C248.848 160.424 241.185 185.902 257.327 189.322C273.469 192.742 275.216 181.016 275.216 181.016C275.216 181.016 261.95 160.943 248.848 160.424Z" fill="#263238"/>
<path d="M245.066 168.862C245.036 168.871 245.005 168.871 244.975 168.862C244.952 168.851 244.931 168.835 244.914 168.816C244.897 168.796 244.885 168.773 244.877 168.748C244.869 168.724 244.867 168.698 244.869 168.672C244.872 168.646 244.88 168.621 244.893 168.599C245.134 168.159 245.474 167.781 245.885 167.495C246.297 167.209 246.77 167.023 247.266 166.951C247.317 166.952 247.366 166.972 247.404 167.007C247.442 167.042 247.466 167.089 247.472 167.14C247.474 167.166 247.471 167.192 247.463 167.217C247.455 167.242 247.443 167.265 247.426 167.285C247.409 167.305 247.388 167.321 247.365 167.333C247.342 167.345 247.317 167.352 247.291 167.354C246.861 167.425 246.453 167.592 246.097 167.843C245.742 168.094 245.448 168.423 245.239 168.805C245.218 168.829 245.19 168.847 245.16 168.857C245.13 168.867 245.097 168.869 245.066 168.862Z" fill="#263238"/>
<path d="M247.373 172.026C247.27 173.019 247.045 173.996 246.706 174.935C246.961 175.087 247.253 175.168 247.55 175.168C247.848 175.168 248.139 175.087 248.395 174.935L247.373 172.026Z" fill="#DE5753"/>
<path d="M245.816 170.914C245.989 171.367 246.376 171.639 246.64 171.524C246.903 171.408 247.052 170.955 246.879 170.502C246.706 170.049 246.318 169.777 246.055 169.892C245.791 170.008 245.651 170.461 245.816 170.914Z" fill="#263238"/>
<path d="M246.186 169.868H245.058C245.058 169.868 245.865 170.494 246.186 169.868Z" fill="#263238"/>
<path d="M262.221 175.191C262.193 175.264 262.154 175.334 262.106 175.397C262.032 175.537 261.95 175.668 261.867 175.809C261.384 176.677 260.741 177.446 259.972 178.075C257.5 180.044 255.349 180.637 253.479 180.069L253.207 179.978C250.43 178.849 248.263 175.528 246.541 171.137C245.777 169.418 245.295 167.587 245.115 165.715C245.115 165.715 245.115 165.649 245.115 165.632C245.115 165.616 245.115 165.484 245.115 165.418C245.051 164.345 245.255 163.273 245.71 162.299C246.165 161.324 246.855 160.479 247.719 159.839C248.458 159.26 249.259 158.765 250.109 158.365C258.34 154.352 266.35 167.42 262.221 175.191Z" fill="#E4897B"/>
<path opacity="0.2" d="M261.867 175.809C261.384 176.677 260.741 177.446 259.972 178.075C257.5 180.044 255.349 180.637 253.479 180.069C255.298 179.628 256.936 178.635 258.167 177.226C258.643 176.734 259.221 176.351 259.86 176.107C260.499 175.862 261.184 175.76 261.867 175.809Z" fill="black"/>
<path d="M245.074 165.665C245.074 165.665 247.373 171.713 254.089 171.606C254.089 171.606 259.329 176.55 262.864 174.976C267.685 172.842 268.673 164.075 263.762 157.953C257.385 150.009 243.476 155.736 245.074 165.665Z" fill="#263238"/>
<path d="M250.496 171.26C250.067 170.345 250.076 168.475 251.584 168.013C253.092 167.552 255.704 170.757 252.457 173.262C251.996 173.625 251.386 173.155 250.496 171.26Z" fill="#E4897B"/>
<path d="M252.301 154.657C252.301 154.657 246.071 155.884 244.061 159.601C241.704 163.918 241.589 167.264 247.851 169.489C247.851 169.489 255.77 162.073 259.181 161.249C261.169 160.755 263.195 160.43 265.237 160.276C262.963 153.693 254.814 151.929 252.301 154.657Z" fill="#263238"/>
<path d="M258.34 178.231C258.34 178.231 262.625 181.197 263.738 186.092L277.095 178.297C277.095 178.297 266.638 175.915 264.842 171.87C264.842 171.87 257.854 172.735 258.34 178.231Z" fill="#E4897B"/>
<path d="M271.607 210.326C271.607 210.326 254.303 193.327 252.441 187.987C252.441 187.987 259.716 176.657 274.26 176.179C288.804 175.702 298.7 203.371 298.7 203.371L271.607 210.326Z" fill="#00BFA6"/>
<path opacity="0.6" d="M298.7 203.38L271.615 210.334C271.615 210.334 267.841 206.618 263.622 202.094C262.32 200.685 260.961 199.202 259.651 197.735C256.215 193.838 253.182 190.031 252.449 187.962C252.449 187.962 259.717 176.632 274.26 176.155C288.804 175.677 298.7 203.38 298.7 203.38Z" fill="white"/>
<path d="M255.44 168.706C255.44 168.706 257.97 177.111 266.852 179.896C275.735 182.681 273.502 191.753 282.113 190.682C286.694 190.113 290.616 180.794 276.567 172.554C268.377 167.766 271.557 152.028 254.171 153.503C254.154 153.511 257.764 164.297 255.44 168.706Z" fill="#263238"/>
<path d="M264.067 338.441L259.947 337.502C260.565 316.902 263.54 291.992 266.168 273.279C266.58 270.346 266.992 267.577 267.372 264.99C267.561 263.762 267.734 262.584 267.907 261.447C268.731 255.835 269.489 251.402 269.942 248.658C270.28 246.656 270.47 245.56 270.47 245.56L285.302 249.177L284.239 252.918L280.737 265.278L280.341 266.687L278.018 274.837L274.079 288.705C274.326 309.643 264.067 338.441 264.067 338.441Z" fill="#E4897B"/>
<path d="M299.334 334.997L295.116 334.783C291.902 312.634 290.551 284.931 289.966 265.674C289.883 262.691 289.809 259.906 289.751 257.368C289.751 257.245 289.751 257.121 289.751 256.997C289.644 251.979 289.595 247.991 289.57 245.461C289.57 243.484 289.57 242.404 289.57 242.404L304.789 243.401L304.138 249.746L303.183 259.057L302.993 260.887L302.334 267.231L300.554 284.28C304.443 304.88 299.334 334.997 299.334 334.997Z" fill="#E4897B"/>
<path d="M300.917 334.173C300.917 333.646 294.407 334.058 294.407 334.058C294.407 334.058 290.411 338.12 286.529 339.002C282.648 339.884 284.824 342.249 289.158 342.249H299.87C302.968 342.281 301.04 339.653 300.917 334.173Z" fill="#263238"/>
<path d="M290.419 335.565C290.325 335.48 290.259 335.368 290.231 335.244C290.203 335.12 290.214 334.991 290.262 334.873C290.288 334.781 290.332 334.695 290.391 334.62C290.451 334.545 290.524 334.483 290.608 334.437C291.07 334.248 291.575 334.191 292.067 334.272C291.539 333.992 291.078 333.654 291.053 333.308C291.053 333.085 291.185 332.904 291.482 332.764C291.611 332.705 291.752 332.675 291.894 332.675C292.036 332.675 292.176 332.705 292.306 332.764C293.187 333.135 293.731 334.651 293.756 334.709C293.773 334.751 293.773 334.798 293.756 334.84V334.882C293.74 334.9 293.721 334.914 293.698 334.923C292.858 335.353 291.949 335.632 291.012 335.747C290.799 335.761 290.588 335.696 290.419 335.565ZM290.781 334.741C290.737 334.764 290.697 334.796 290.664 334.834C290.632 334.872 290.607 334.916 290.592 334.964C290.526 335.219 290.592 335.285 290.592 335.31C290.905 335.565 292.092 335.203 293.064 334.799C292.324 334.566 291.534 334.543 290.781 334.733V334.741ZM291.605 333.093C291.515 333.093 291.366 333.217 291.375 333.308C291.375 333.596 292.322 334.132 293.278 334.47C293.065 333.899 292.675 333.411 292.166 333.077C292.083 333.038 291.993 333.019 291.902 333.019C291.808 333.019 291.716 333.039 291.63 333.077L291.605 333.093Z" fill="#263238"/>
<path d="M266.152 334.173C266.152 333.646 259.651 334.058 259.651 334.058C259.651 334.058 255.654 338.12 251.773 339.002C247.892 339.884 250.059 342.249 254.393 342.249H265.105C268.212 342.281 266.292 339.653 266.152 334.173Z" fill="#263238"/>
<path d="M255.662 335.565C255.57 335.479 255.506 335.367 255.478 335.243C255.45 335.12 255.46 334.991 255.506 334.873C255.531 334.781 255.575 334.695 255.635 334.62C255.694 334.545 255.768 334.483 255.852 334.437C256.314 334.249 256.818 334.192 257.31 334.272C256.783 333.992 256.322 333.654 256.305 333.308C256.305 333.088 256.445 332.907 256.725 332.764C256.855 332.705 256.995 332.675 257.137 332.675C257.279 332.675 257.42 332.705 257.549 332.764C258.431 333.135 258.975 334.651 259 334.709C259.01 334.729 259.015 334.752 259.015 334.774C259.015 334.797 259.01 334.82 259 334.84C259 334.84 259 334.84 259 334.882L258.942 334.923C258.098 335.352 257.187 335.63 256.247 335.747C256.037 335.757 255.83 335.693 255.662 335.565ZM256.025 334.741C255.981 334.764 255.943 334.796 255.911 334.834C255.88 334.872 255.857 334.917 255.844 334.964C255.778 335.219 255.844 335.285 255.885 335.31C256.19 335.565 257.376 335.203 258.357 334.799C257.602 334.556 256.793 334.533 256.025 334.733V334.741ZM256.849 333.093C256.758 333.093 256.61 333.217 256.618 333.308C256.618 333.596 257.566 334.132 258.53 334.47C258.314 333.898 257.921 333.41 257.409 333.077C257.327 333.038 257.237 333.018 257.146 333.019C257.052 333.019 256.959 333.039 256.874 333.077L256.849 333.093Z" fill="#263238"/>
<path d="M268.097 251.757L271.607 227.037V210.31C280.86 203.355 298.7 203.355 298.7 203.355C298.7 203.355 312.403 222.365 305.745 253.619L288.54 256.091L287.444 250.257L285.285 256.091L268.097 251.757Z" fill="#263238"/>
<path opacity="0.2" d="M268.097 251.757L271.607 227.037V210.31C280.86 203.355 298.7 203.355 298.7 203.355C298.7 203.355 312.403 222.365 305.745 253.619L288.54 256.091L287.444 250.257L285.285 256.091L268.097 251.757Z" fill="white"/>
<path opacity="0.2" d="M287.444 250.348L290.74 240.056C290.74 240.056 294.217 239.001 298.683 232.096C298.7 232.096 297.925 243.846 287.444 250.348Z" fill="black"/>
<path opacity="0.2" d="M280.11 215.064L287.831 214.331C289.064 217.217 289.491 220.384 289.067 223.493L284.123 226.468L280.539 223.922C280.539 223.922 280.424 217.388 280.11 215.064Z" fill="black"/>
<path opacity="0.2" d="M298.7 213.177C299.736 215.723 300.501 218.372 300.982 221.079L303.718 222.241L305.193 220.403C305.193 220.403 304.196 215.023 302.507 212.386L298.7 213.177Z" fill="black"/>
<path d="M267.775 250.348L286.035 255.704L284.89 258.159L267.545 252.82L267.775 250.348Z" fill="#263238"/>
<path d="M287.831 255.349L288.136 257.607L306.042 255.349L306.314 252.506L287.831 255.349Z" fill="#263238"/>
<path d="M291.589 206.824C294.518 206.329 297.478 206.04 300.447 205.959L299.343 204.138C296.455 204.062 293.566 204.232 290.707 204.649L291.589 206.824Z" fill="#263238"/>
<path d="M275.166 209.065C272.802 210.087 271.442 210.854 271.442 210.854V213.103C272.771 212.433 274.104 211.82 275.438 211.266L275.166 209.065Z" fill="#263238"/>
<path d="M276.304 210.944C280.884 209.148 285.635 207.826 290.485 206.997L289.661 204.805C284.96 205.589 280.365 206.911 275.966 208.744L276.304 210.944Z" fill="#263238"/>
<path d="M226.798 217.379L222.117 215.5L221.293 219.917C221.293 219.917 225.512 222.472 227.276 219.431L226.798 217.379Z" fill="#E4897B"/>
<path d="M219.794 215.772L218.294 219.184L221.326 219.917L222.117 215.5L219.794 215.772Z" fill="#E4897B"/>
<path d="M298.626 169.909L298.074 164.899L293.805 166.283C293.805 166.283 293.542 171.227 297.06 171.326L298.626 169.909Z" fill="#E4897B"/>
<path d="M296.731 162.979L293.014 163.276L293.805 166.283L298.074 164.899L296.731 162.979Z" fill="#E4897B"/>
<path opacity="0.2" d="M263.622 202.119C262.32 200.71 260.961 199.226 259.651 197.76C259.148 194.694 258.827 191.992 258.827 191.992C260.396 193.156 261.655 194.689 262.491 196.455C263.328 198.222 263.716 200.167 263.622 202.119Z" fill="black"/>
<path d="M259.305 190.575C257.417 198.184 254.568 205.522 250.826 212.411C247.118 219.456 233.019 220.305 225.933 220.486L225.603 216.893C229.871 215.888 243.138 213.243 244.95 209.395C247.91 202.728 250.345 195.84 252.235 188.795L259.305 190.558V190.575Z" fill="#DC897C"/>
<path d="M255.267 184.362C251.238 186.998 249.079 193.854 248.395 197.208L256.767 203.371L260.994 199.251C262.708 189.792 256.8 183.365 255.267 184.362Z" fill="#00BFA6"/>
<path opacity="0.6" d="M255.267 184.362C251.238 186.998 249.079 193.854 248.395 197.208L256.767 203.371L260.994 199.251C262.708 189.792 256.8 183.365 255.267 184.362Z" fill="white"/>
<path d="M296.137 171.515L290.155 172.158C290.071 172.161 289.987 172.145 289.909 172.114C289.831 172.082 289.76 172.035 289.701 171.974C289.642 171.914 289.596 171.842 289.567 171.763C289.537 171.684 289.524 171.6 289.529 171.515L289.166 158.851C289.155 158.671 289.209 158.494 289.318 158.352C289.427 158.21 289.584 158.111 289.76 158.076L295.734 157.441C295.818 157.438 295.903 157.452 295.981 157.483C296.06 157.514 296.131 157.562 296.191 157.623C296.25 157.683 296.295 157.756 296.325 157.835C296.354 157.915 296.366 158 296.36 158.084L296.722 170.749C296.734 170.926 296.681 171.101 296.574 171.242C296.466 171.383 296.311 171.48 296.137 171.515Z" fill="#263238"/>
<path opacity="0.6" d="M296.137 171.515L290.155 172.158C290.071 172.161 289.987 172.145 289.909 172.114C289.831 172.082 289.76 172.035 289.701 171.974C289.642 171.914 289.596 171.842 289.567 171.763C289.537 171.684 289.524 171.6 289.529 171.515L289.166 158.851C289.155 158.671 289.209 158.494 289.318 158.352C289.427 158.21 289.584 158.111 289.76 158.076L295.734 157.441C295.818 157.438 295.903 157.452 295.981 157.483C296.06 157.514 296.131 157.562 296.191 157.623C296.25 157.683 296.295 157.756 296.325 157.835C296.354 157.915 296.366 158 296.36 158.084L296.722 170.749C296.734 170.926 296.681 171.101 296.574 171.242C296.466 171.383 296.311 171.48 296.137 171.515Z" fill="white"/>
<path d="M295.61 171.573L289.636 172.207C289.551 172.212 289.467 172.199 289.388 172.169C289.308 172.139 289.237 172.092 289.177 172.032C289.117 171.972 289.07 171.9 289.04 171.821C289.01 171.742 288.997 171.658 289.001 171.573L288.647 158.9C288.632 158.722 288.683 158.545 288.792 158.404C288.9 158.262 289.057 158.166 289.232 158.134L295.206 157.499C295.29 157.496 295.374 157.51 295.452 157.54C295.53 157.571 295.601 157.618 295.66 157.678C295.719 157.737 295.765 157.809 295.794 157.887C295.824 157.966 295.837 158.05 295.832 158.134L296.195 170.807C296.21 170.984 296.159 171.161 296.051 171.303C295.942 171.445 295.785 171.541 295.61 171.573Z" fill="#263238"/>
<path opacity="0.7" d="M295.61 171.573L289.636 172.207C289.551 172.212 289.467 172.199 289.388 172.169C289.308 172.139 289.237 172.092 289.177 172.032C289.117 171.972 289.07 171.9 289.04 171.821C289.01 171.742 288.997 171.658 289.001 171.573L288.647 158.9C288.632 158.722 288.683 158.545 288.792 158.404C288.9 158.262 289.057 158.166 289.232 158.134L295.206 157.499C295.29 157.496 295.374 157.51 295.452 157.54C295.53 157.571 295.601 157.618 295.66 157.678C295.719 157.737 295.765 157.809 295.794 157.887C295.824 157.966 295.837 158.05 295.832 158.134L296.195 170.807C296.21 170.984 296.159 171.161 296.051 171.303C295.942 171.445 295.785 171.541 295.61 171.573Z" fill="white"/>
<path d="M295.214 157.746L293.649 157.911L293.451 158.397L291.029 158.653L290.806 158.216L289.24 158.381C289.127 158.405 289.026 158.469 288.956 158.561C288.887 158.653 288.853 158.768 288.861 158.884L289.216 171.548C289.212 171.603 289.22 171.659 289.24 171.71C289.259 171.762 289.289 171.809 289.328 171.848C289.367 171.887 289.414 171.917 289.466 171.937C289.517 171.956 289.573 171.964 289.628 171.96L295.602 171.326C295.714 171.304 295.815 171.242 295.885 171.151C295.955 171.06 295.989 170.946 295.981 170.832L295.626 158.158C295.629 158.104 295.62 158.049 295.6 157.998C295.58 157.947 295.55 157.901 295.511 157.862C295.472 157.823 295.426 157.793 295.375 157.773C295.324 157.753 295.269 157.744 295.214 157.746Z" fill="#00BFA6"/>
<path opacity="0.8" d="M294.415 162.328L290.023 162.797C289.97 162.8 289.916 162.791 289.866 162.771C289.816 162.752 289.771 162.722 289.733 162.684C289.695 162.646 289.665 162.601 289.646 162.551C289.626 162.501 289.617 162.447 289.62 162.394V161.174C289.609 161.06 289.641 160.947 289.71 160.856C289.778 160.764 289.878 160.702 289.99 160.68L294.39 160.21C294.444 160.209 294.498 160.219 294.547 160.239C294.597 160.26 294.642 160.29 294.679 160.329C294.716 160.368 294.745 160.414 294.763 160.464C294.782 160.515 294.789 160.568 294.786 160.622L294.827 161.842C294.834 161.96 294.795 162.077 294.719 162.167C294.642 162.258 294.533 162.315 294.415 162.328Z" fill="white"/>
</svg>
