<svg width="24" height="24" viewBox="0 0 24 24" fill="none" xmlns="http://www.w3.org/2000/svg">
<path d="M15.75 5.24996C16.5456 5.24996 17.3087 5.56603 17.8713 6.12864C18.4339 6.69125 18.75 7.45431 18.75 8.24996M21.75 8.24996C21.7501 9.12507 21.5588 9.98962 21.1895 10.783C20.8202 11.5764 20.2818 12.2793 19.6121 12.8426C18.9424 13.4059 18.1575 13.8159 17.3126 14.0438C16.4677 14.2717 15.5831 14.312 14.721 14.162C14.158 14.065 13.562 14.188 13.158 14.592L10.5 17.25H8.25V19.5H6V21.75H2.25V18.932C2.25 18.335 2.487 17.762 2.909 17.341L9.408 10.842C9.812 10.438 9.935 9.84196 9.838 9.27896C9.6962 8.46012 9.72604 7.62076 9.92563 6.81406C10.1252 6.00737 10.4902 5.25093 10.9975 4.59268C11.5047 3.93444 12.1432 3.38875 12.8724 2.9902C13.6016 2.59164 14.4057 2.34891 15.2336 2.27739C16.0616 2.20587 16.8953 2.30712 17.6821 2.57472C18.4688 2.84232 19.1914 3.27044 19.8041 3.83194C20.4167 4.39344 20.906 5.07609 21.241 5.8366C21.5759 6.59712 21.7493 7.41894 21.75 8.24996Z" stroke="#989898" stroke-width="2" stroke-linecap="round" stroke-linejoin="round"/>
</svg>
