<svg width="116" height="49" viewBox="0 0 116 49" fill="none" xmlns="http://www.w3.org/2000/svg">
<path d="M2.97176 31V7.99612H10.333C11.5599 7.99612 12.6663 8.29736 13.6521 8.89984C14.638 9.49137 15.4212 10.2965 16.0018 11.3152C16.5933 12.323 16.8891 13.4568 16.8891 14.7165C16.8891 15.9872 16.5879 17.1319 15.9854 18.1507C15.3939 19.1694 14.5997 19.9746 13.6028 20.5661C12.617 21.1576 11.527 21.4534 10.333 21.4534H5.27215V31H2.97176ZM5.27215 19.153H10.1523C10.9629 19.153 11.7023 18.9558 12.3705 18.5615C13.0497 18.1562 13.5864 17.6139 13.9808 16.9348C14.3861 16.2447 14.5887 15.4669 14.5887 14.6015C14.5887 13.7361 14.3861 12.9639 13.9808 12.2847C13.5864 11.5946 13.0497 11.0523 12.3705 10.658C11.7023 10.2527 10.9629 10.05 10.1523 10.05H5.27215V19.153ZM20.2375 31V6.35298H22.5379V31H20.2375ZM39.8737 14.5687H42.1741V31H39.8737L39.7916 27.9438C39.2548 28.9844 38.5045 29.8279 37.5405 30.4742C36.5765 31.1095 35.4263 31.4272 34.0899 31.4272C32.8849 31.4272 31.7567 31.2027 30.705 30.7535C29.6534 30.2935 28.7278 29.6636 27.9281 28.8639C27.1285 28.0643 26.5041 27.1386 26.055 26.087C25.6059 25.0354 25.3813 23.9071 25.3813 22.7022C25.3813 21.5191 25.6004 20.4073 26.0385 19.3666C26.4877 18.326 27.1011 17.4113 27.8789 16.6226C28.6676 15.8339 29.5768 15.2204 30.6065 14.7823C31.6471 14.3331 32.759 14.1086 33.942 14.1086C35.3113 14.1086 36.5053 14.4372 37.5241 15.0945C38.5428 15.7408 39.3534 16.5897 39.9559 17.6413L39.8737 14.5687ZM34.0406 29.1926C35.2127 29.1926 36.2205 28.9077 37.064 28.3381C37.9075 27.7575 38.5538 26.9798 39.0029 26.0049C39.463 25.0299 39.693 23.9564 39.693 22.7843C39.693 21.5794 39.463 20.4949 39.0029 19.5309C38.5428 18.556 37.891 17.7837 37.0475 17.2141C36.2041 16.6445 35.2018 16.3597 34.0406 16.3597C32.8795 16.3597 31.8169 16.65 30.8529 17.2305C29.8999 17.8002 29.1386 18.5724 28.569 19.5474C28.0103 20.5223 27.731 21.6013 27.731 22.7843C27.731 23.9783 28.0213 25.0628 28.6018 26.0377C29.1824 27.0017 29.9492 27.7685 30.9022 28.3381C31.8662 28.9077 32.9123 29.1926 34.0406 29.1926ZM59.7903 20.829V31H57.4899V21.2891C57.4899 20.3908 57.2709 19.5747 56.8327 18.8408C56.3945 18.1069 55.8085 17.5208 55.0745 17.0826C54.3406 16.6445 53.5245 16.4254 52.6263 16.4254C51.739 16.4254 50.9229 16.6445 50.178 17.0826C49.4441 17.5208 48.858 18.1069 48.4198 18.8408C47.9817 19.5747 47.7626 20.3908 47.7626 21.2891V31H45.4622V14.5687H47.7626V16.8362C48.3432 16.0037 49.099 15.3409 50.0301 14.848C50.9612 14.355 51.9745 14.1086 53.0699 14.1086C54.3077 14.1086 55.436 14.4098 56.4548 15.0123C57.4735 15.6148 58.2841 16.4254 58.8866 17.4441C59.4891 18.4629 59.7903 19.5912 59.7903 20.829ZM69.9898 31.4272C68.4781 31.4272 67.0979 31.0383 65.8491 30.2606C64.6113 29.4828 63.6199 28.4422 62.8751 27.1386C62.1411 25.8241 61.7742 24.3727 61.7742 22.7843C61.7742 21.5794 61.9878 20.4566 62.415 19.4159C62.8422 18.3643 63.4282 17.4441 64.1731 16.6554C64.929 15.8558 65.8053 15.2314 66.8021 14.7823C67.799 14.3331 68.8615 14.1086 69.9898 14.1086C71.5015 14.1086 72.8763 14.4975 74.1141 15.2752C75.3629 16.053 76.3542 17.0991 77.0882 18.4136C77.8331 19.7281 78.2055 21.185 78.2055 22.7843C78.2055 23.9783 77.9919 25.0957 77.5647 26.1363C77.1375 27.177 76.5459 28.0971 75.7901 28.8968C75.0452 29.6855 74.1743 30.3044 73.1775 30.7535C72.1916 31.2027 71.1291 31.4272 69.9898 31.4272ZM69.9898 29.1268C71.1072 29.1268 72.1095 28.8365 72.9968 28.256C73.895 27.6644 74.6016 26.8867 75.1164 25.9227C75.6422 24.9587 75.9051 23.9126 75.9051 22.7843C75.9051 21.6341 75.6422 20.577 75.1164 19.6131C74.5906 18.6382 73.8786 17.8604 72.9803 17.2798C72.093 16.6993 71.0962 16.409 69.9898 16.409C68.8725 16.409 67.8647 16.7047 66.9665 17.2963C66.0792 17.8768 65.3726 18.6491 64.8468 19.6131C64.332 20.577 64.0745 21.6341 64.0745 22.7843C64.0745 23.9674 64.3429 25.0409 64.8797 26.0049C65.4164 26.9579 66.1339 27.7192 67.0322 28.2888C67.9304 28.8475 68.9163 29.1268 69.9898 29.1268ZM80.9886 31V14.5687H83.2889V16.8362C83.8695 16.0037 84.6254 15.3409 85.5565 14.848C86.4876 14.355 87.5009 14.1086 88.5963 14.1086C89.2316 14.1086 89.8451 14.1907 90.4366 14.355L89.5 16.639C89.0399 16.4966 88.5908 16.4254 88.1526 16.4254C87.2653 16.4254 86.4492 16.6445 85.7044 17.0826C84.9704 17.5208 84.3844 18.1069 83.9462 18.8408C83.508 19.5747 83.2889 20.3908 83.2889 21.2891V31H80.9886ZM105.15 14.5687H107.45V31H105.15L105.068 27.9438C104.531 28.9844 103.781 29.8279 102.817 30.4742C101.853 31.1095 100.702 31.4272 99.366 31.4272C98.161 31.4272 97.0327 31.2027 95.9811 30.7535C94.9295 30.2935 94.0039 29.6636 93.2042 28.8639C92.4046 28.0643 91.7802 27.1386 91.3311 26.087C90.8819 25.0354 90.6574 23.9071 90.6574 22.7022C90.6574 21.5191 90.8765 20.4073 91.3146 19.3666C91.7638 18.326 92.3772 17.4113 93.1549 16.6226C93.9436 15.8339 94.8528 15.2204 95.8825 14.7823C96.9232 14.3331 98.035 14.1086 99.2181 14.1086C100.587 14.1086 101.781 14.4372 102.8 15.0945C103.819 15.7408 104.629 16.5897 105.232 17.6413L105.15 14.5687ZM99.3167 29.1926C100.489 29.1926 101.497 28.9077 102.34 28.3381C103.184 27.7575 103.83 26.9798 104.279 26.0049C104.739 25.0299 104.969 23.9564 104.969 22.7843C104.969 21.5794 104.739 20.4949 104.279 19.5309C103.819 18.556 103.167 17.7837 102.324 17.2141C101.48 16.6445 100.478 16.3597 99.3167 16.3597C98.1555 16.3597 97.093 16.65 96.129 17.2305C95.176 17.8002 94.4147 18.5724 93.8451 19.5474C93.2864 20.5223 93.0071 21.6013 93.0071 22.7843C93.0071 23.9783 93.2973 25.0628 93.8779 26.0377C94.4585 27.0017 95.2253 27.7685 96.1783 28.3381C97.1423 28.9077 98.1884 29.1926 99.3167 29.1926Z" fill="white"/>
<g clip-path="url(#clip0_40_38)">
<path d="M69.7948 14.3156C74.5663 14.3156 78.4456 18.1949 78.4456 22.9663C78.4456 27.7377 74.5663 31.5931 69.7948 31.5931C65.0234 31.5931 61.168 27.7377 61.168 22.9663C61.168 18.1949 65.0234 14.3156 69.7948 14.3156ZM69.7948 29.593C73.4574 29.593 76.4454 26.6289 76.4454 22.9663C76.4454 19.3037 73.4574 16.3157 69.7948 16.3157C66.1322 16.3157 63.1681 19.3037 63.1681 22.9663C63.1681 26.6289 66.1322 29.593 69.7948 29.593ZM71.2159 24.3643L66.0589 26.7014L68.3961 21.5444L73.5531 19.2073L71.2159 24.3643ZM66.9996 25.7854L70.7348 23.9055L68.8549 22.0256L66.9996 25.7854Z" fill="white"/>
</g>
<path d="M1 40.1281C1 40.1281 13.3146 36.5687 25.423 37.0316C35.0245 37.3987 30.2643 39.9927 40.1323 40.1281C50.7329 40.2736 47.2526 36.994 57.8946 37.0316C68.3276 37.0686 64.4871 40.3428 74.8241 40.1281C84.1959 39.9334 78.2932 37.3872 87.452 37.0316C98.6929 36.5953 108.822 40.1281 108.822 40.1281" stroke="#00BFA6" stroke-width="0.787023" stroke-dasharray="3.15 3.15"/>
<path d="M113.22 43.6635C113.639 43.741 114.012 43.3041 113.796 42.896L113.732 42.7773C112.767 40.961 111.635 39.2384 110.351 37.6315C110.045 37.2484 109.427 37.4687 109.418 37.95L109.378 39.9418C109.374 40.1321 109.243 40.3096 109.043 40.3712L107.088 40.9735C106.639 41.1115 106.561 41.7656 107.047 41.9499C109.006 42.6914 111.026 43.2564 113.085 43.6383L113.22 43.6635Z" fill="#FFD54F"/>
<defs>
<clipPath id="clip0_40_38">
<rect width="24.6746" height="24.6746" fill="white" transform="translate(61.168 10.629)"/>
</clipPath>
</defs>
</svg>
