<svg width="17" height="17" viewBox="0 0 17 17" fill="none" xmlns="http://www.w3.org/2000/svg">
<path d="M8.5 14.875C9.91312 14.8749 11.2862 14.4055 12.4036 13.5405C13.5211 12.6755 14.3196 11.4639 14.6738 10.0959M8.5 14.875C7.08688 14.8749 5.7138 14.4055 4.59636 13.5405C3.47891 12.6755 2.68039 11.4639 2.32617 10.0959M8.5 14.875C10.2602 14.875 11.6875 12.0204 11.6875 8.5C11.6875 4.97958 10.2602 2.125 8.5 2.125M8.5 14.875C6.73979 14.875 5.3125 12.0204 5.3125 8.5C5.3125 4.97958 6.73979 2.125 8.5 2.125M14.6738 10.0959C14.8049 9.58588 14.875 9.05108 14.875 8.5C14.8768 7.40358 14.5944 6.32541 14.0555 5.37058M14.6738 10.0959C12.7848 11.1431 10.6598 11.6909 8.5 11.6875C6.26025 11.6875 4.15579 11.1102 2.32617 10.0959M2.32617 10.0959C2.19212 9.57452 2.12452 9.03831 2.125 8.5C2.125 7.36313 2.4225 6.29496 2.94454 5.37058M8.5 2.125C9.63067 2.12453 10.7411 2.42488 11.7174 2.99523C12.6937 3.56559 13.5006 4.38541 14.0555 5.37058M8.5 2.125C7.36933 2.12453 6.25889 2.42488 5.28262 2.99523C4.30634 3.56559 3.49939 4.38541 2.94454 5.37058M14.0555 5.37058C12.5132 6.70645 10.5404 7.44044 8.5 7.4375C6.37642 7.4375 4.43417 6.65833 2.94454 5.37058" stroke="#B6B6B6" stroke-width="1.5" stroke-linecap="round" stroke-linejoin="round"/>
</svg>
