<svg width="517" height="13" viewBox="0 0 517 13" fill="none" xmlns="http://www.w3.org/2000/svg">
<path d="M505.575 2.32306C496.644 2.08104 487.704 1.86523 478.757 1.67564C405.114 0.0391815 331.056 -0.503392 257.267 0.517974C189.26 0.146648 121.203 1.30082 53.4186 2.95999C36.4791 3.39859 19.4739 3.51217 2.50448 3.67993C-2.4529 3.92981 0.939783 5.98565 4.17988 4.94331C52.2758 4.83235 103.453 2.55109 189.832 1.9028C176.286 2.27462 162.759 2.70541 149.257 3.19502C112.617 4.56412 75.6924 5.69732 39.7522 8.25729C28.9339 9.03838 18.3101 10.0318 7.83285 11.1362C5.69672 11.5206 -0.466354 11.4533 0.359378 12.5009C0.954742 13.1291 4.43718 13.1169 5.75655 12.7272C48.7395 7.95848 94.759 6.5553 140.052 4.84283C178.649 3.37326 217.422 2.39557 256.27 1.84863C341.542 2.37897 426.841 5.18183 510.039 10.6425C511.188 10.7377 512.504 10.5272 512.801 10.1847C513.393 9.54601 511.107 9.31448 509.384 9.25856C495.008 8.31845 480.609 7.40105 466.135 6.59986C418.063 4.136 369.542 2.51265 320.914 1.34101L320.214 1.32703C368.546 1.21083 416.911 1.70709 465.109 2.69963C476.211 2.93116 502.524 3.47286 514.464 3.91932C515.052 3.94107 515.647 3.89462 516.119 3.78993C516.592 3.68524 516.905 3.53064 516.992 3.35928C517.273 2.20773 509.967 2.59303 505.581 2.32306H505.575Z" fill="#FFD54F"/>
</svg>
