<svg width="923" height="585" viewBox="0 0 923 585" fill="none" xmlns="http://www.w3.org/2000/svg">
<g clip-path="url(#clip0_77_2)">
<path d="M1036.52 449.524C1077.38 519.3 1086.2 613.373 1049.75 672.869C1013.29 732.366 931.858 757.286 866.006 747.629C800.154 738.284 749.59 694.363 724.895 642.031C700.201 589.699 701.083 528.333 726.365 468.214C751.353 408.094 801.036 348.598 861.891 341.745C923.039 334.58 995.653 379.748 1036.52 449.524Z" fill="#00BFA6"/>
<path d="M358.495 82.3228C354.855 164.351 311.819 247.162 249.966 274.301C188.114 301.441 107.688 273.087 58.5895 225.595C9.32458 178.36 -8.85482 111.812 -1.21967 53.8655C6.41548 -4.08147 39.9561 -54.1171 92.9364 -88.4771C145.674 -123.014 218.428 -142.211 272.236 -111.324C326.453 -80.5169 362.134 0.294868 358.495 82.3228Z" fill="#00BFA6"/>
</g>
<defs>
<clipPath id="clip0_77_2">
<rect width="923" height="585" fill="white"/>
</clipPath>
</defs>
</svg>
